<svg xmlns="http://www.w3.org/2000/svg" viewBox="0 0 211.56 200.98"><title>boat</title><g id="图层_2" data-name="图层 2"><g id="图层_1-2" data-name="图层 1"><style></style><path d="M37.56,102.68c3.06-.87,6.05-1.93,9.14-2.69,5.66-1.39,11.38-2.53,17-3.93s11.07-2.94,16.62-4.39c3-.78,6-1.49,9-2.23l12.83-3.28a13.73,13.73,0,0,0,3.55-1,13.73,13.73,0,0,0,3.55,1l12.83,3.28c3,.74,6,1.44,9,2.23,5.54,1.45,11.05,3,16.62,4.39s11.38,2.54,17,3.93c3.09.76,6.08,1.82,9.14,2.69,2,.58,3.13-.15,3.13-2.19,0-6,.08-11.93-.08-17.89a2.57,2.57,0,0,0-1.82-2.66A73.71,73.71,0,0,0,167,77.16c-2.29-.42-2.69-1.41-2.67-3.25.07-4.9.09-9.79,0-14.69A3.46,3.46,0,0,0,163,56.61a28.9,28.9,0,0,0-5-1.84c-6-2.07-12-4.14-18-6.18-4-1.36-8-2.65-12-4s-8.14-2.78-12.22-4.15c0,0-1.13-.22-2.69-.49l-1-7.19h17.9A1.76,1.76,0,0,0,131.66,31V27.56a1.76,1.76,0,0,0-1.75-1.75H111l-.93-6.71H123.4a1.76,1.76,0,0,0,1.75-1.75v-3a1.76,1.76,0,0,0-1.75-1.75H109.21l-.86-6.2h7.08a1.76,1.76,0,0,0,1.75-1.75V1.75A1.76,1.76,0,0,0,115.43,0H94.27a1.76,1.76,0,0,0-1.75,1.75V4.62a1.76,1.76,0,0,0,1.75,1.75h9.21l-.9,6.2H86.3a1.76,1.76,0,0,0-1.75,1.75v3A1.76,1.76,0,0,0,86.3,19.1h15.33l-1,6.71h-19a1.76,1.76,0,0,0-1.75,1.75V31a1.76,1.76,0,0,0,1.75,1.75h18l-1,7.19c-1.58.27-2.73.5-2.73.5-4.08,1.36-8.14,2.79-12.22,4.15s-8,2.63-12,4c-6,2-12,4.12-18,6.18a28.9,28.9,0,0,0-5,1.84,3.46,3.46,0,0,0-1.28,2.62c-.12,4.89-.11,9.79,0,14.69,0,1.84-.38,2.83-2.67,3.25a73.71,73.71,0,0,0-8.22,2.78,2.57,2.57,0,0,0-1.82,2.66c-.16,6-.08,11.93-.08,17.89C34.44,102.52,35.53,103.26,37.56,102.68ZM61.1,64.14c9.18-3,18.38-5.89,27.53-8.93,4.26-1.41,8.45-3,12.64-4.56a35.75,35.75,0,0,1,4.51-1.26l.25,0c1.45-.05,4.76,1.38,4.76,1.38,4.19,1.57,8.38,3.15,12.64,4.56,9.16,3,18.35,6,27.53,8.93,2.2.71,3.69,4.66,2.33,6.92-1.21,2-3.14.92-4.8.41-3.13-1-6.24-2-9.37-2.94-4.13-1.27-8.26-2.51-12.39-3.77-5.28-1.62-10.53-3.35-15.85-4.87a18,18,0,0,0-5.1-.9,16.83,16.83,0,0,0-4.6.8c-5.32,1.51-10.57,3.24-15.85,4.87-4.13,1.27-8.26,2.5-12.39,3.77-3.13,1-6.24,2-9.37,2.94-1.66.51-3.59,1.59-4.8-.41C57.41,68.8,58.9,64.85,61.1,64.14Z" fill="#AE5C30" fill-opacity="0.1" p-id="4972"></path><path d="M234.666667 844.8c12.8 4.266667 29.866667 8.533333 51.2 8.533333 46.933333 0 64-8.533333 93.866666-21.333333 25.6-12.8 55.466667-25.6 102.4-29.866667V401.066667c0-17.066667 12.8-34.133333 34.133334-34.133334 17.066667 0 34.133333 12.8 34.133333 34.133334V797.866667c46.933333 4.266667 76.8 17.066667 102.4 29.866666 25.6 12.8 46.933333 21.333333 93.866667 21.333334 21.333333 0 38.4-4.266667 51.2-4.266667l110.933333-320c8.533333-21.333333 0-46.933333-21.333333-55.466667l-59.733334-34.133333V247.466667c0-21.333333-8.533333-42.666667-21.333333-55.466667l-8.533333-8.533333c-12.8-8.533333-29.866667-17.066667-46.933334-17.066667h-51.2V102.4c0-17.066667-12.8-29.866667-29.866666-29.866667H366.933333c-17.066667 0-29.866667 12.8-29.866666 29.866667v64H281.6c-42.666667 0-81.066667 34.133333-81.066667 81.066667v196.266666l-55.466666 29.866667c-21.333333 12.8-29.866667 34.133333-21.333334 55.466667l110.933334 315.733333z m298.666666-558.933333c-12.8-8.533333-29.866667-8.533333-42.666666 0L260.266667 409.6V247.466667c0-8.533333 8.533333-17.066667 17.066666-17.066667h460.8c8.533333 0 17.066667 8.533333 17.066667 17.066667v157.866666l-221.866667-119.466666z m0 0" fill="#AE5C30" fill-opacity="0.1"></path><path d="M234.666667 844.8c12.8 4.266667 29.866667 8.533333 51.2 8.533333 46.933333 0 64-8.533333 93.866666-21.333333 25.6-12.8 55.466667-25.6 102.4-29.866667V401.066667c0-17.066667 12.8-34.133333 34.133334-34.133334 17.066667 0 34.133333 12.8 34.133333 34.133334V797.866667c46.933333 4.266667 76.8 17.066667 102.4 29.866666 25.6 12.8 46.933333 21.333333 93.866667 21.333334 21.333333 0 38.4-4.266667 51.2-4.266667l110.933333-320c8.533333-21.333333 0-46.933333-21.333333-55.466667l-59.733334-34.133333V247.466667c0-21.333333-8.533333-42.666667-21.333333-55.466667l-8.533333-8.533333c-12.8-8.533333-29.866667-17.066667-46.933334-17.066667h-51.2V102.4c0-17.066667-12.8-29.866667-29.866666-29.866667H366.933333c-17.066667 0-29.866667 12.8-29.866666 29.866667v64H281.6c-42.666667 0-81.066667 34.133333-81.066667 81.066667v196.266666l-55.466666 29.866667c-21.333333 12.8-29.866667 34.133333-21.333334 55.466667l110.933334 315.733333z m298.666666-558.933333c-12.8-8.533333-29.866667-8.533333-42.666666 0L260.266667 409.6V247.466667c0-8.533333 8.533333-17.066667 17.066666-17.066667h460.8c8.533333 0 17.066667 8.533333 17.066667 17.066667v157.866666l-221.866667-119.466666z m0 0" fill="#AE5C30" fill-opacity="0.1"/><path d="M205.83,121.22c-5.37-1-10.65-2.4-15.94-3.74C184.24,116,178.65,114.4,173,113s-11.35-2.66-17-4c-2.56-.6-5.12-1.22-7.67-1.87-5.91-1.52-11.81-3.08-17.72-4.6s-11.64-3-17.49-4.42l-.46-.11-3.31,75.66h0a1.29,1.29,0,0,0-1.33-1.22h-3.54a1.29,1.29,0,0,0-1.33,1.24s0,0,0,.06h0L99,98l-.49.12C92.61,99.47,86.8,101,81,102.51s-11.81,3.08-17.72,4.6c-2.55.66-5.11,1.27-7.67,1.88-5.67,1.34-11.38,2.58-17,4s-11.24,3.07-16.89,4.5c-5.29,1.34-10.57,2.75-15.94,3.74-6,1.1-6.88,2.47-4.55,8,3,7,5.6,14.06,8.81,20.92,2.65,5.68,5.75,11.2,8.94,16.64a173.45,173.45,0,0,0,22.59,30c3.57,3.86,7.61,5.06,12.62,3.77a18.85,18.85,0,0,0,4.83-2.2,37.18,37.18,0,0,1,18.83-5c8.17-.18,15.23,2.31,21.93,6.29a11,11,0,0,0,2.88,1s2.41.26,3.2.26,3.15-.26,3.15-.26a11,11,0,0,0,2.88-1c6.7-4,13.76-6.47,21.93-6.29a37.18,37.18,0,0,1,18.83,5,18.85,18.85,0,0,0,4.83,2.2c5,1.3,9,.09,12.62-3.77a173.45,173.45,0,0,0,22.59-30c3.19-5.44,6.29-11,8.94-16.64,3.2-6.86,5.85-14,8.81-20.92C212.7,123.7,211.8,122.33,205.83,121.22Z" fill="#AE5C30" fill-opacity="0.1" p-id="4972"></path><path d="M234.666667 844.8c12.8 4.266667 29.866667 8.533333 51.2 8.533333 46.933333 0 64-8.533333 93.866666-21.333333 25.6-12.8 55.466667-25.6 102.4-29.866667V401.066667c0-17.066667 12.8-34.133333 34.133334-34.133334 17.066667 0 34.133333 12.8 34.133333 34.133334V797.866667c46.933333 4.266667 76.8 17.066667 102.4 29.866666 25.6 12.8 46.933333 21.333333 93.866667 21.333334 21.333333 0 38.4-4.266667 51.2-4.266667l110.933333-320c8.533333-21.333333 0-46.933333-21.333333-55.466667l-59.733334-34.133333V247.466667c0-21.333333-8.533333-42.666667-21.333333-55.466667l-8.533333-8.533333c-12.8-8.533333-29.866667-17.066667-46.933334-17.066667h-51.2V102.4c0-17.066667-12.8-29.866667-29.866666-29.866667H366.933333c-17.066667 0-29.866667 12.8-29.866666 29.866667v64H281.6c-42.666667 0-81.066667 34.133333-81.066667 81.066667v196.266666l-55.466666 29.866667c-21.333333 12.8-29.866667 34.133333-21.333334 55.466667l110.933334 315.733333z m298.666666-558.933333c-12.8-8.533333-29.866667-8.533333-42.666666 0L260.266667 409.6V247.466667c0-8.533333 8.533333-17.066667 17.066666-17.066667h460.8c8.533333 0 17.066667 8.533333 17.066667 17.066667v157.866666l-221.866667-119.466666z m0 0" fill="#AE5C30" fill-opacity="0.1"/></g></g></svg>