<svg xmlns="http://www.w3.org/2000/svg" viewBox="0 0 51.52 51.52"><defs><style>.cls-1{fill:#4b6f9b;}.cls-2{fill:#19c1ff;}.cls-3{fill:#1abeff;}</style></defs><title>基本信息</title><g id="图层_2" data-name="图层 2"><g id="图层_1-2" data-name="图层 1"><path class="cls-1" d="M42.83,0H8.69A8.66,8.66,0,0,0,0,8.69V42.83a8.66,8.66,0,0,0,8.69,8.69H42.83a8.66,8.66,0,0,0,8.69-8.69V8.69A8.66,8.66,0,0,0,42.83,0Zm3.86,42.5A3.57,3.57,0,0,1,43.15,46H8.69A3.57,3.57,0,0,1,5.15,42.5V8.37A3.57,3.57,0,0,1,8.69,4.83H42.83a3.87,3.87,0,0,1,3.86,3.54Z"/><path class="cls-2" d="M39.61,11.91H11.27a2.58,2.58,0,1,0,0,5.15H39.61a2.58,2.58,0,0,0,0-5.15Z"/><path class="cls-3" d="M16.42,23.51H11.27a2.37,2.37,0,0,0-2.58,2.58,2.54,2.54,0,0,0,2.58,2.58h5.15A2.37,2.37,0,0,0,19,26.08,2.54,2.54,0,0,0,16.42,23.51Z"/><path class="cls-3" d="M16.42,34.45H11.27a2.58,2.58,0,0,0,0,5.15h5.15a2.58,2.58,0,0,0,0-5.15Z"/><path class="cls-3" d="M36.39,22.86H29.62a5.77,5.77,0,0,0-5.8,5.8v6.76a5.77,5.77,0,0,0,5.8,5.8h6.76a5.77,5.77,0,0,0,5.8-5.8V28.66A5.77,5.77,0,0,0,36.39,22.86Zm1,12.56a1,1,0,0,1-1,1H29.62a1,1,0,0,1-1-1V28.66a1,1,0,0,1,1-1h6.76a1,1,0,0,1,1,1Z"/></g></g></svg>