<svg xmlns="http://www.w3.org/2000/svg" viewBox="0 0 55.07 57.26"><defs><style>.cls-1{fill:#4b6f9b;}.cls-2{fill:none;}.cls-3{fill:#1abeff;}</style></defs><title>验收</title><g id="图层_2" data-name="图层 2"><g id="图层_1-2" data-name="图层 1"><path class="cls-1" d="M35.73,4.27h-4.8a6.43,6.43,0,0,0-12.11,0H14v8.66H35.73ZM24.87,8.6A2.17,2.17,0,1,1,27,6.43,2.17,2.17,0,0,1,24.87,8.6Z"/><path class="cls-2" d="M36.67,38a1.61,1.61,0,0,0-1.59,1.47,1.6,1.6,0,0,0,1.46,1.73h.14a1.61,1.61,0,0,0,1.22-2.64A1.59,1.59,0,0,0,36.82,38Z"/><path class="cls-1" d="M49.85,9.84a4.3,4.3,0,0,0-4.27-4.33h-7.9v4.81h7.43v9.84l4.74,3.93Z"/><path class="cls-1" d="M21.7,48.9h-17V10.32h7.43V5.51H4.27A4.3,4.3,0,0,0,0,9.84V49.38a4.3,4.3,0,0,0,4.27,4.33H20.86Z"/><path class="cls-3" d="M25.63,36.77,22.12,55.82l9.29-11.34a1.12,1.12,0,0,1,1.73,1.42L23.84,57.26l17.93-7.05,6.12-13.73L38.2,28.41ZM39.9,39.83A3.23,3.23,0,1,1,37,36.34,3.22,3.22,0,0,1,39.9,39.83Z"/><path class="cls-3" d="M54.62,30.15l-4.77-4-4.74-3.93-1.87-1.55a1.24,1.24,0,0,0-1.75.16l-2.65,3.19A1.24,1.24,0,0,0,39,25.82l11.38,9.44a1.24,1.24,0,0,0,1.75-.16l2.65-3.19A1.24,1.24,0,0,0,54.62,30.15Z"/></g></g></svg>