<svg xmlns="http://www.w3.org/2000/svg" viewBox="0 0 52.86 60.64"><defs><style>.cls-1{fill:#17a4de;}</style></defs><title>船级社</title><g id="图层_2" data-name="图层 2"><g id="图层_1-2" data-name="图层 1"><path class="cls-1" d="M49.06,49.53a.84.84,0,0,1-.66-1q0-11.05,0-22.11a5.7,5.7,0,0,0-4.16-5.58,17.15,17.15,0,0,0-2.78-.25.93.93,0,0,1-.62-.26c-.81-1.22-1.58-2.47-2.41-3.79l.47-.36a5.61,5.61,0,0,0,2.22-4.54c0-1.5,0-3,0-4.5a5.74,5.74,0,0,0-5.52-5.79c-1.29-.06-2.58-.05-3.87,0A5.17,5.17,0,0,1,29,.72,5.73,5.73,0,0,0,20.5,5.85c0,2,0,4,0,6.06a.78.78,0,0,1-.59.86,14.48,14.48,0,0,0-7.86,6.76,1.82,1.82,0,0,1-1.95,1.12,5.72,5.72,0,0,0-6,6q0,11.05,0,22.11a.71.71,0,0,1-.53.81A5.75,5.75,0,0,0,5.91,60.64H47.32a5.87,5.87,0,0,0,5.47-4.72A5.68,5.68,0,0,0,49.06,49.53Zm2.75,6a4.79,4.79,0,0,1-4.73,4.05H5.79a4.76,4.76,0,0,1-1.22-9.36l.5-.14v-.77q0-11.37,0-22.73a4.68,4.68,0,0,1,5-5A2.59,2.59,0,0,0,13,20a13,13,0,0,1,7.75-6.46,1,1,0,0,0,.79-1.14c0-2.18,0-4.37,0-6.56a4.77,4.77,0,0,1,6.33-4.58,4.11,4.11,0,0,1,1.26.67,2,2,0,0,0,1.37.43c1.56,0,3.12,0,4.68,0a4.77,4.77,0,0,1,5,5c0,1.39,0,2.79,0,4.18a4.64,4.64,0,0,1-3,4.49l-.57.28c.18.19.32.35.47.5a12.93,12.93,0,0,1,3,4.25.75.75,0,0,0,.85.52c.62,0,1.25,0,1.87,0a4.75,4.75,0,0,1,4.63,4.76c0,3.41,0,6.83,0,10.24V50.11c.35.08.69.15,1,.25A4.7,4.7,0,0,1,51.81,55.58Z"/><path class="cls-1" d="M47.16,52.89c-.76,0-1.53,0-2.35,0v-.81c0-8.41,0-16.82,0-25.23a2.31,2.31,0,0,0-2.51-2.48c-1.12.07-2.25,0-3.37,0a.57.57,0,0,1-.68-.52,10.38,10.38,0,0,0-2.73-4.75,13.11,13.11,0,0,0-6.67-3.56c-.17,0-.42-.18-.44-.3a11.9,11.9,0,0,1,0-1.37c2.34,0,4.59,0,6.84,0a2.1,2.1,0,0,0,2.29-2.3c0-1.35,0-2.71,0-4.06a2.18,2.18,0,0,0-2.44-2.41H28.85a.94.94,0,0,1-.76-.38,3,3,0,0,0-1.4-.91,2.08,2.08,0,0,0-2.49,2.3q0,4.37,0,8.74c0,.45-.11.61-.59.72-4.66,1.06-8,3.6-9.34,8.39a.76.76,0,0,1-.59.35c-1.1,0-2.21.07-3.31,0a2.36,2.36,0,0,0-2.6,2.6c.05,8.37,0,16.73,0,25.1v.83c-.7,0-1.3,0-1.9,0a2.09,2.09,0,1,0,0,4.17c.81,0,1.62,0,2.44,0H46.72a3.44,3.44,0,0,0,1.22-.17,2.09,2.09,0,0,0,1.32-2.18A2.21,2.21,0,0,0,47.16,52.89ZM33.85,37.63c0-.11.22-.3.35-.3,2.12,0,4.23,0,6.4,0v5H33.84C33.84,40.74,33.83,39.19,33.85,37.63ZM23.13,28.56h6.6v4.65h-6.6Zm0,9.07c0-.11.22-.3.34-.3,2.08,0,4.15,0,6.28,0v5H23.09C23.09,40.75,23.09,39.19,23.11,37.63Zm-10.84-9H19v4.63H12.27ZM19,51.23H12.23c0-1.45,0-2.88,0-4.3,0-.11.17-.32.27-.32,2.15,0,4.31,0,6.5,0Zm0-8.88H12.22V41.4c0-1.19,0-2.37,0-3.56,0-.29,0-.53.41-.53l6.18,0a.72.72,0,0,1,.2.07Zm10.74,8.89H23.09c0-1.46,0-2.89,0-4.31,0-.11.17-.32.27-.32,2.11,0,4.22,0,6.37,0Zm10.87,0H33.84c0-1.45,0-2.88,0-4.31a.47.47,0,0,1,.33-.32c2.1,0,4.19,0,6.29,0,0,0,.07,0,.14.08Zm0-18H33.87V28.59h6.75Z"/></g></g></svg>