<svg xmlns="http://www.w3.org/2000/svg" viewBox="0 0 28.87 28.74"><title>edit</title><g id="图层_2" data-name="图层 2"><g id="图层_1-2" data-name="图层 1"><rect x="19.91" y="25.81" width="2.94" height="2.92"/><rect x="13.94" y="25.81" width="2.94" height="2.92"/><path d="M26.93,8l.54-.53.71-.69A2.62,2.62,0,0,0,28.71,6a2.36,2.36,0,0,0,.16-.85,4,4,0,0,0-.08-.82,3.29,3.29,0,0,0-.21-.69,7.37,7.37,0,0,0-1.3-1.89A6,6,0,0,0,25.75.44,4.73,4.73,0,0,0,25,.15,3.68,3.68,0,0,0,24.06,0a3,3,0,0,0-1,.13,2.89,2.89,0,0,0-1,.51q-.36.3-.9.8l-.94.87,6.14,6.14Q26.67,8.26,26.93,8Z"/><path d="M10.78,11.81,8.12,14.47l-2.4,2.4L3.91,18.68,3,19.62a5.42,5.42,0,0,0-.71.84,5.5,5.5,0,0,0-.44.84,7.3,7.3,0,0,0-.43,1.08q-.26.79-.54,1.72T.35,25.91A11.09,11.09,0,0,0,0,27.24,1.55,1.55,0,0,0,.2,28.45q.3.36,1.18.26.43-.07,1.3-.3t1.84-.54q1-.31,1.86-.64a14.31,14.31,0,0,0,1.35-.56,4.1,4.1,0,0,0,.89-.53q.43-.33.76-.62.13-.1.82-.79L11.93,23q1.05-1.07,2.36-2.35L16.92,18,24,10.92,17.84,4.75Z"/><rect x="25.9" y="25.81" width="2.94" height="2.92"/></g></g></svg>