<svg xmlns="http://www.w3.org/2000/svg" viewBox="0 0 52.38 52.57"><defs><style>.cls-1{fill:#a6c8f0;}</style></defs><title>计划</title><g id="图层_2" data-name="图层 2"><g id="图层_1-2" data-name="图层 1"><path class="cls-1" d="M27,25.92h-.07v0Z"/><path class="cls-1" d="M14.26,29.87h5.68V23H14.26ZM17.91,25v2.85H16.3l0-2.85Z"/><path class="cls-1" d="M7,42.05h5.66v-6.9H7Zm3.63-4.87V40H9l0-2.84Z"/><path class="cls-1" d="M14.26,42.05h5.68v-6.9H14.26Zm3.66-4.87V40H16.3l0-2.84Z"/><path class="cls-1" d="M7,29.05v.81h5.68V23H7ZM9,25h1.62v2.85H9Z"/><path class="cls-1" d="M34.13,23.1l.28-.06h0Z"/><path class="cls-1" d="M43.46,37.18H38.34v-5a1.63,1.63,0,0,0-3.26,0v6.75a1.63,1.63,0,0,0,1.63,1.63,1.61,1.61,0,0,0,.64-.13h6.11a1.63,1.63,0,1,0,0-3.26Z"/><path class="cls-1" d="M48.76,27.38V12.12a6.64,6.64,0,0,0-6.62-6.63H41.09v-1A4.27,4.27,0,0,0,37.23,0h0L37,0h-.23a4.24,4.24,0,0,0-4.23,4.23V5.64h-3.9V4.45a4.27,4.27,0,0,0-3-4.25h0L25.29.1l-.12,0L24.9,0l-.19,0h-.43L24,0h-.08a4.25,4.25,0,0,0-3.75,4c0,.12,0,.25,0,.34V5.64H16.28V4.23A4.22,4.22,0,0,0,8.71,1.66a4.25,4.25,0,0,0-1,2.76V5.49H6.63A6.65,6.65,0,0,0,0,12.12V42.37A6.66,6.66,0,0,0,6.63,49H27.29a15.29,15.29,0,0,0,9.8,3.56h0A15.3,15.3,0,0,0,48.76,27.38ZM38.08,4.11v5.6s0,.06,0,.09a1.3,1.3,0,0,1-2.59,0s0-.06,0-.09V4.11a1.3,1.3,0,0,1,2.61,0Zm-13.8-1.3a1.31,1.31,0,0,1,1.3,1.3v5.6s0,.06,0,.09A1.3,1.3,0,0,1,23,9.8s0-.06,0-.09V4.11A1.31,1.31,0,0,1,24.28,2.81ZM10.72,4.31a1.3,1.3,0,1,1,2.59,0V9.72s0,.06,0,.08a1.29,1.29,0,0,1-2.57,0s0-.06,0-.08Zm-7,9.55A4.05,4.05,0,0,1,7.75,9.8h.08v.09a4.23,4.23,0,0,0,8.46,0V9.8h3.87v.09a4.23,4.23,0,0,0,8.46,0V9.8h3.94v.09a4.23,4.23,0,0,0,8.46,0V9.82a4.05,4.05,0,0,1,3.66,4v3.44H3.7ZM6.62,45.22a2.84,2.84,0,0,1-2.84-2.84l0-.68V21H45v3.21a15.2,15.2,0,0,0-7.77-2.12,15.48,15.48,0,0,0-2.81.26,15.15,15.15,0,0,0-6.85,3.17l-.06.06.16-.08-.43.24V23H21.58v6.9h2.27l-.12.27-.06.15a15.2,15.2,0,0,0,.41,14.94ZM34.41,23l-.28.06.28-.06ZM27,25.92l-.07,0v0ZM25.2,27.6l-.08.11H23.59l0-2.85H25.2ZM37.29,49A11.7,11.7,0,1,1,49,37.3,11.7,11.7,0,0,1,37.29,49Z"/></g></g></svg>