<?xml version="1.0" encoding="utf-8"?>
<!-- Generator: Adobe Illustrator 21.0.0, SVG Export Plug-In . SVG Version: 6.00 Build 0)  -->
<svg version="1.1" id="图层_1" xmlns="http://www.w3.org/2000/svg" xmlns:xlink="http://www.w3.org/1999/xlink" x="0px" y="0px"
	 viewBox="0 0 128 128" style="enable-background:new 0 0 128 128;" xml:space="preserve">
<path d="M78.2,111h-5.7c-0.7,0-1.4,0.6-1.4,1.4c0,4-3.2,7.2-7.2,7.2s-7.2-3.2-7.2-7.2c0-0.7-0.6-1.4-1.4-1.4h-5.7
	c-0.7,0-1.4,0.6-1.4,1.4c0,8.5,7.1,15.6,15.6,15.6s15.6-7.1,15.6-15.6C79.6,111.6,79,111,78.2,111L78.2,111z M91.2,56
	c0.2,0.5,0.7,0.9,1.3,0.9c0.1,0,0.2,0,0.3,0c0.6-0.1,1.1-0.7,1.1-1.3c0-6.5-2.1-12.8-5.7-17.5c-3.6-4.8-9.4-8.3-15.3-9.4
	c-0.6-0.1-1.2,0.2-1.5,0.8c-0.3,0.6-0.1,1.3,0.4,1.6C80.4,37.6,87.5,46.8,91.2,56L91.2,56z M122.3,103.9c0-0.5-0.1-1.1-0.3-1.6
	c-1.2-9.1-6.3-17.3-13.9-22.5V55.5c0-18.3-11.4-34.8-28.6-41.2C78.8,6.3,72,0,64,0S49.2,6.3,48.5,14.2
	c-17.1,6.4-28.5,22.9-28.5,41.3v24.3C12.3,85,7.3,93.1,6,102.3c-0.3,0.8-0.4,1.6-0.2,2.3c-0.1,0.7-0.1,1.4-0.1,2.1
	c0,0.7,0.6,1.4,1.4,1.4h113.9c0.7,0,1.4-0.6,1.4-1.4c0-0.7,0-1.4-0.1-2.1C122.3,104.4,122.3,104.1,122.3,103.9L122.3,103.9z
	 M72.2,20.8c1.9,0.4,3.7,1,5.5,1.8C90.8,28,99.6,41.3,99.6,55.5v28.3c0,0.5,0.3,1,0.7,1.2c6,3,10.5,8.3,12.4,14.7H15.2
	C17.1,93.3,21.6,88,27.6,85c0.5-0.2,0.8-0.7,0.8-1.2V55.5c0-16.3,11.5-30.9,27.4-34.7c0.6-0.1,1-0.7,1-1.3v-3.9
	c0-3.9,3.3-7.2,7.2-7.2c3.9,0,7.2,3.3,7.2,7.2v3.8C71.2,20.1,71.6,20.6,72.2,20.8L72.2,20.8z"/>
</svg>
