<svg xmlns="http://www.w3.org/2000/svg" viewBox="0 0 180.69 38.56"><defs><style>.cls-1{fill:#036;}</style></defs><title>蓝色logo</title><g id="图层_2" data-name="图层 2"><g id="图层_1-2" data-name="图层 1"><path class="cls-1" d="M138.54,29.48V13h3.77v16.5Zm1.92-18.86a2.43,2.43,0,0,1-1.59-.55,1.84,1.84,0,0,1-.71-1.48,1.86,1.86,0,0,1,.7-1.48,2.41,2.41,0,0,1,1.59-.56,2.47,2.47,0,0,1,1.61.55,1.88,1.88,0,0,1,0,2.95A2.44,2.44,0,0,1,140.46,10.62Z"/><path class="cls-1" d="M67,29.3V6.87h6.24c7.67,0,11.56,3.68,11.56,10.95a11.19,11.19,0,0,1-3.25,8.36A11.78,11.78,0,0,1,73,29.3ZM73,26a8.51,8.51,0,0,0,6.18-2.14,8,8,0,0,0,2.15-6c0-5.2-2.68-7.72-8.18-7.72H70.27V26Z"/><path class="cls-1" d="M95,29.32a8.51,8.51,0,0,1-6.11-2.2,7.78,7.78,0,0,1-2.32-5.87A8.08,8.08,0,0,1,88.94,15a9.07,9.07,0,0,1,6.4-2.22,8.23,8.23,0,0,1,6,2.17,8.12,8.12,0,0,1,2.2,6,8,8,0,0,1-2.37,6A8.68,8.68,0,0,1,95,29.32Zm.19-13.51a4.84,4.84,0,0,0-3.68,1.41,5.53,5.53,0,0,0-1.34,3.94A5.21,5.21,0,0,0,91.49,25a4.92,4.92,0,0,0,3.66,1.38A4.64,4.64,0,0,0,98.73,25,5.59,5.59,0,0,0,100,21.1a5.68,5.68,0,0,0-1.24-3.94A4.62,4.62,0,0,0,95.15,15.81Z"/><path class="cls-1" d="M113.45,29.32a9.17,9.17,0,0,1-6.35-2.19,7.36,7.36,0,0,1-2.45-5.71,8,8,0,0,1,2.63-6.24,10,10,0,0,1,6.92-2.35,11.1,11.1,0,0,1,4.24.76l.3.13v3.62L118,16.9a7.53,7.53,0,0,0-3.9-1.09,5.65,5.65,0,0,0-4,1.49,5.11,5.11,0,0,0-1.56,3.92A4.84,4.84,0,0,0,109.95,25a5.62,5.62,0,0,0,4,1.37,7.37,7.37,0,0,0,4-1.21l.76-.48V28.1l-.27.14A10.89,10.89,0,0,1,113.45,29.32Z"/><polygon class="cls-1" points="131.5 29.27 125.42 22.42 125.42 29.27 121.65 29.27 121.65 6.77 125.42 6.77 125.42 19.39 131.49 12.82 135.65 12.82 128.63 20.81 136.25 29.27 131.5 29.27"/><path class="cls-1" d="M158.08,29.3V20.16c0-2.9-1.16-4.32-3.56-4.32a4.2,4.2,0,0,0-3.12,1.22,4.15,4.15,0,0,0-1.22,3.09V29.3H146.4V13.15h3.77v1.72a7.1,7.1,0,0,1,5.3-2.07,6.22,6.22,0,0,1,4.73,1.76,7,7,0,0,1,1.65,5V29.3Z"/><path class="cls-1" d="M171,36a14.75,14.75,0,0,1-5.85-1.08l-.3-.13V31.29l.7.33A12.76,12.76,0,0,0,171,33c4,0,5.94-1.74,5.94-5.32v-.36a7.74,7.74,0,0,1-13.28-5.7,8.81,8.81,0,0,1,2.27-6.34,8.23,8.23,0,0,1,6.2-2.38,6.82,6.82,0,0,1,4.8,1.66V13.21h3.77V27.32C180.69,33.06,177.43,36,171,36Zm1.5-20.13a4.71,4.71,0,0,0-3.69,1.44,5.94,5.94,0,0,0-1.33,4.14A5.06,5.06,0,0,0,168.75,25a4.38,4.38,0,0,0,3.36,1.33,4.83,4.83,0,0,0,3.48-1.28,4.31,4.31,0,0,0,1.32-3.28V19.63A3.42,3.42,0,0,0,175.67,17,4.59,4.59,0,0,0,172.5,15.84Z"/><path class="cls-1" d="M31.53,14.07c0,2.41,0,4.93,0,7.34h0q0,3.58,0,7.17c0,.82-.06.87-.85.88H28.42a.62.62,0,0,1-.66-.68c0-.15,0-.3,0-.45q0-7.17,0-14.34c0-.81.13-.92.88-.92h2C31.51,13.08,31.53,13.25,31.53,14.07Z"/><path class="cls-1" d="M29.63,0C19.07,0,10.51,8.83,10.51,19.73a20.06,20.06,0,0,0,3,10.57,37.57,37.57,0,0,1,8.82,2l1.15.36A6.24,6.24,0,0,0,21.89,32a1.21,1.21,0,0,1-.65-.48q-2.83-4.48-5.62-9A1,1,0,0,1,16.13,21c1.05-.47,2.11-.94,3.18-1.38a.57.57,0,0,0,.42-.63c0-1.41,0-2.81,0-4.22a1.11,1.11,0,0,1,.87-1.29c2.05-.8,4.1-1.61,6.16-2.37A2.81,2.81,0,0,1,26,9.21,3.4,3.4,0,0,1,29.63,6.1a3.4,3.4,0,0,1,3.63,3.11,2.81,2.81,0,0,1-.74,1.87h0c2,.73,3.94,1.5,5.9,2.26.82.32,1,.55,1,1.42,0,.67,0,1.34,0,2s0,1.47,0,2.21a.47.47,0,0,0,.35.52c1.11.46,2.21.94,3.32,1.43a1,1,0,0,1,.54,1.69c-1.84,3-3.67,5.91-5.53,8.86a1.43,1.43,0,0,1-.78.54,6.49,6.49,0,0,0-2.1,1l2.16-.67a39.33,39.33,0,0,1,8.35-2,20.06,20.06,0,0,0,3-10.64C48.75,8.83,40.19,0,29.63,0Z"/><path class="cls-1" d="M31.62,9a1.91,1.91,0,0,0-2-1.57,1.89,1.89,0,0,0-2,1.75s0,0,0,0a2,2,0,0,0,4,0A1.51,1.51,0,0,0,31.62,9Z"/><polygon class="cls-1" points="29.63 33.52 20.82 30.88 20.95 31.88 29.64 34.58 37.37 32.33 38.77 30.87 29.63 33.52"/><path class="cls-1" d="M48,31.25c-6.49-.18-11.25,2.84-18.38,4-7.13-1.2-11.89-4.22-18.38-4C3.41,31.46,0,35.77,0,35.77a21.2,21.2,0,0,1,9.33-2.54c5.76-.07,8.56,2.06,13,3.36a26.15,26.15,0,0,0,6.13,1.91,4.8,4.8,0,0,0,1.17,0,4.8,4.8,0,0,0,1.17,0,26.15,26.15,0,0,0,6.13-1.91c4.44-1.3,7.24-3.42,13-3.36a21.2,21.2,0,0,1,9.33,2.54S55.85,31.46,48,31.25Z"/></g></g></svg>