<svg xmlns="http://www.w3.org/2000/svg" viewBox="0 0 46.88 59.7"><defs><style>.cls-1{fill:#cc7729;}</style></defs><title>人员</title><g id="图层_2" data-name="图层 2"><g id="图层_1-2" data-name="图层 1"><polygon class="cls-1" points="20.23 39.92 22.82 42.5 20.23 45.76 23.37 52.04 23.45 52.2 23.93 51.22 26.66 45.77 24.07 42.51 26.66 39.92 24.84 38.1 23.44 36.7 20.23 39.92"/><path class="cls-1" d="M23.4,13.2a30.09,30.09,0,0,1,7.74.88,11.79,11.79,0,0,1,3.12,1.29c1-.75,2.17-1.7,2.45-2,.49-.49-1-1-1.41-3.08s-.3-2.77-2.09-3S28.29,7,26,5c-1.7-1.51-2.52-1.7-2.83-1.7a.36.36,0,0,0-.16,0s0,0-.09,0-.83.2-2.54,1.7C18,7,15.28,7.15,13.49,7.33s-1.74.92-2.19,3-2.11,2.6-1.62,3.08c.32.32,1.62,1.48,2.49,2.25A11.14,11.14,0,0,1,15.79,14,30.37,30.37,0,0,1,23.4,13.2Z"/><path class="cls-1" d="M13,17.89l.5-.27a22.71,22.71,0,0,1,9.94-2A23.28,23.28,0,0,1,33,17.46V16.33l.69-.53A8.5,8.5,0,0,0,32,15a30,30,0,0,0-8.56-.95,30.47,30.47,0,0,0-8.46.91,7.81,7.81,0,0,0-2.27,1.07l.29.25Z"/><path class="cls-1" d="M13.22,18.86c1.69,3.28,6.87,3.63,8.92,3.63.53,0,.85,0,.85,0s.32,0,.85,0c2.13,0,7.6-.37,9.08-4a22.06,22.06,0,0,0-9.52-2A21,21,0,0,0,13.22,18.86Z"/><path class="cls-1" d="M23.44,32.29A10.71,10.71,0,0,0,33.87,19l-.25-.16c-1.69,4-7.37,4.4-9.79,4.4-.43,0-.73,0-.85,0s-.42,0-.85,0c-2.21,0-7.15-.37-9.28-3.47a11.13,11.13,0,0,0-.15,1.73A10.73,10.73,0,0,0,23.44,32.29Z"/><path class="cls-1" d="M37.15,36.57c-7.11-2.79-6.57-2.43-6.57-2.43l-5.21,3.59,1.73,1.73.46.46-2.64,2.64,2.23,2.81.25.32-.18.36-3.79,7.58-3.78-7.57-.19-.36.25-.32L22,42.56l-2.18-2.18-.45-.46,2.39-2.39-4.92-3.39s.54-.36-6.57,2.43-6.47,9.27-6.38,9.63,0,4.59,0,5.85h0v.35h.27c1.47,1.2,9.16,4,19.59,4,8.9,0,18.2-2.71,19.73-4h.22V52.1a.23.23,0,0,0,0-.05h0c0-1.24-.12-5.56,0-5.86S44.26,39.35,37.15,36.57ZM38,46.64H31v-.81h7Z"/><path class="cls-1" d="M46.79,46.56a13.25,13.25,0,0,0-8.38-13.37L34,31.46a.9.9,0,0,1,.06-.24l.5-.64a13.26,13.26,0,0,0,2.79-10.83,2.78,2.78,0,0,1,1.17-3.08c2-1.55,2.16-3.61.77-5.71a6.51,6.51,0,0,1-.93-2.13C37.68,5.8,36.08,4.25,33,4A8.5,8.5,0,0,1,26.6,1.2,4,4,0,0,0,23.73,0a6.8,6.8,0,0,0-5.4,2.09A7.28,7.28,0,0,1,13.59,4c-3.4.24-5,1.61-5.82,4.93a5.27,5.27,0,0,1-.93,1.85,4.14,4.14,0,0,0,.35,5.82c.27.27.55.53.85.77A2.7,2.7,0,0,1,9,20a15.08,15.08,0,0,0,.56,6.31,15,15,0,0,0,3.1,5.24l-.8.35c-1.34.54-2.69,1-4,1.61a13,13,0,0,0-7.77,12c.06,3.14,0,6.28-.06,9.41,0,.73.16,1.05.86,1.29a68.8,68.8,0,0,0,17.62,3.36,79.47,79.47,0,0,0,13.9-.33,54.42,54.42,0,0,0,13.68-3A1,1,0,0,0,46.88,55,57.46,57.46,0,0,1,46.79,46.56Zm-1.61,8.9a56.18,56.18,0,0,1-13,2.78,78.82,78.82,0,0,1-17.09,0A68.55,68.55,0,0,1,1.74,55.44a.91.91,0,0,1-.74-1c0-3.06,0-6.12.06-9.17A11.37,11.37,0,0,1,7.44,34.82c2.11-1.1,4.41-1.85,6.63-2.76l.33-.15c-.61-.68-1.23-1.3-1.77-2A13.07,13.07,0,0,1,10,19.86a3.25,3.25,0,0,0-1-3c-.43-.38-.86-.76-1.26-1.17a2.89,2.89,0,0,1-.31-4A7.72,7.72,0,0,0,8.94,8.46a4.13,4.13,0,0,1,3.6-3.33c.81-.13,1.62-.21,2.44-.32a6.37,6.37,0,0,0,3.53-1.56,15.78,15.78,0,0,1,2-1.52,4.54,4.54,0,0,1,5.76.56A8.89,8.89,0,0,0,32.65,5c2.84.16,4.2,1.43,4.8,4.24a6.39,6.39,0,0,0,.9,2.15c1.21,1.82,1.18,3.27-.54,4.57a3.53,3.53,0,0,0-1.46,4,12.18,12.18,0,0,1-3.49,11,4.81,4.81,0,0,1-.89.58l.21.26c1.83.7,3.66,1.4,5.49,2.11a12.23,12.23,0,0,1,8,9.38,9.56,9.56,0,0,1,.15,1.87c0,3.08,0,6.17,0,9.25A.88.88,0,0,1,45.18,55.46Z"/></g></g></svg>