<svg xmlns="http://www.w3.org/2000/svg" viewBox="0 0 52.82 56.36"><defs><style>.cls-1{fill:#4b6f9b;}.cls-2{fill:none;}.cls-3{fill:#1abeff;}</style></defs><title>项目</title><g id="图层_2" data-name="图层 2"><g id="图层_1-2" data-name="图层 1"><path class="cls-1" d="M35.85,4.27H31a6.43,6.43,0,0,0-12.11,0h-4.8v8.66H35.86ZM25,8.6a2.17,2.17,0,1,1,2.17-2.17A2.17,2.17,0,0,1,25,8.6Z"/><path class="cls-2" d="M44.75,32.91a2.11,2.11,0,0,0-3,0l-7.35,7.63L32,36.86l0,0a2.11,2.11,0,0,0-3-.58,2.19,2.19,0,0,0-.57,3l3.88,5.92a2.13,2.13,0,0,0,1.58,1h.2a2.12,2.12,0,0,0,1.53-.65l9.19-9.54A2.15,2.15,0,0,0,45,35.7V33.19A2.15,2.15,0,0,0,44.75,32.91Z"/><path class="cls-3" d="M49.71,29A17.33,17.33,0,0,0,46,25.12l-.1-.07-.64-.46L45,24.42l-.57-.36a16.83,16.83,0,0,0-4.79-1.95v.14a13.42,13.42,0,0,0-3.8-.55,17.38,17.38,0,0,0-14,27.19,9.93,9.93,0,0,0,2.74,2.65h-.61a17.23,17.23,0,0,0,2.74,2.16,16.85,16.85,0,0,0,18.13,0A17.5,17.5,0,0,0,49.71,29ZM45,35.7a2.15,2.15,0,0,1-.19.25L35.6,45.49a2.12,2.12,0,0,1-1.53.65h-.2a2.13,2.13,0,0,1-1.58-1l-3.88-5.92a2.19,2.19,0,0,1,.57-3,2.11,2.11,0,0,1,3,.58l0,0,2.43,3.69,7.35-7.63a2.11,2.11,0,0,1,3,0,2.15,2.15,0,0,1,.23.28A2.18,2.18,0,0,1,45,35.7Z"/><path class="cls-1" d="M45.77,23l.17.11.2.13.71.51.09.07a18.82,18.82,0,0,1,2.76,2.6V9.84a4.3,4.3,0,0,0-4.27-4.33H37.8v4.81H45V22.52l.26.15Z"/><path class="cls-1" d="M19.79,49,4.74,48.9V10.32h7.43V5.51H4.27A4.3,4.3,0,0,0,0,9.84V49.38a4.3,4.3,0,0,0,4.27,4.33H23.92c-.39-.32-.77-.65-1.12-1a11,11,0,0,1-1.82-2"/></g></g></svg>