<svg xmlns="http://www.w3.org/2000/svg" viewBox="0 0 63.13 77.65"><defs><style>.cls-1{fill:#39464f;}.cls-2{fill:#f1c40f;}</style></defs><title>验收单</title><g id="图层_2" data-name="图层 2"><g id="图层_1-2" data-name="图层 1"><path class="cls-1" d="M16.88,59.91A4.94,4.94,0,0,1,18,56.27l.68-.83a4.49,4.49,0,0,0-8.1,2.83A4.64,4.64,0,0,0,15,62.66a4.35,4.35,0,0,0,2.52-.78A5,5,0,0,1,16.88,59.91Z"/><path class="cls-1" d="M14.95,26.9a4.47,4.47,0,0,0-4.37,4.64A4.54,4.54,0,0,0,15,35.87a4.64,4.64,0,0,0,4.56-4.53A4.54,4.54,0,0,0,14.95,26.9Z"/><path class="cls-1" d="M15,39.83a4.44,4.44,0,1,0,.15,8.88A4.44,4.44,0,1,0,15,39.83Z"/><path class="cls-1" d="M14,71.5H9.3a4,4,0,0,1-4-4V23.44a4,4,0,0,1,4-4h3.28a3.75,3.75,0,0,0,3.64,2.88H37.88a3.75,3.75,0,0,0,3.64-2.88h4.07a4,4,0,0,1,4,4V36.21l5,4.11V20a5.75,5.75,0,0,0-5.73-5.73H41.62V13.14A3.75,3.75,0,0,0,37.88,9.4h-5a6.49,6.49,0,1,0-11.61,0h-5a3.75,3.75,0,0,0-3.74,3.74v1.17H5.73A5.75,5.75,0,0,0,0,20V70.86a5.75,5.75,0,0,0,5.73,5.73h7.79A5.37,5.37,0,0,1,13.28,75v-.82A5.57,5.57,0,0,1,14,71.5ZM27,3.05A3.44,3.44,0,0,1,28.88,9.4H25.21A3.44,3.44,0,0,1,27,3.05Z"/><path class="cls-1" d="M38,33.2a5,5,0,0,1,5.35-1.58c0-.07,0-.15,0-.23a2.62,2.62,0,0,0-2.62-2.62H25.63a2.62,2.62,0,0,0,0,5.23H37.38Z"/><path class="cls-1" d="M29.58,46c1.21-1.35,2.39-2.72,3.62-4.14H25.63A2.62,2.62,0,0,0,23,44.47h0a2.62,2.62,0,0,0,2.62,2.62h3Z"/><path class="cls-1" d="M36.84,41.86H36.6l.13.13Z"/><path class="cls-2" d="M38.78,40.15l2.1,1.72,2.46,2L49.57,49l0,0a2.23,2.23,0,0,0,3.13-.31l1.7-2.08.14-.19a2.24,2.24,0,0,0,0-2.44,2.21,2.21,0,0,0-.45-.5l-4.57-3.74L43.3,34.62a2.23,2.23,0,0,0-3.13.31L38.47,37a2.24,2.24,0,0,0,.31,3.13Z"/><path class="cls-2" d="M23.8,55.14a2.23,2.23,0,0,0-2,.79L20.1,58a2.23,2.23,0,0,0,.31,3.13l9.09,7.44L31.26,70a2.23,2.23,0,0,0,3.13-.31l.92-1.12.78-1a2.24,2.24,0,0,0-.31-3.13l-4.56-3.73-6.28-5.14h0A2.2,2.2,0,0,0,23.8,55.14Z"/><path class="cls-2" d="M43.2,71.5a2.35,2.35,0,0,0-.86-.17H18.74a2.55,2.55,0,0,0-.9.17A2.86,2.86,0,0,0,16,74.19V75a2.72,2.72,0,0,0,.5,1.58,2.45,2.45,0,0,0,2,1.06H42.34a2.45,2.45,0,0,0,2-1.06,2.72,2.72,0,0,0,.5-1.58V74A2.64,2.64,0,0,0,43.2,71.5Z"/><path class="cls-2" d="M62.34,68.75,44.6,54.09l2.62-3.17L36.61,42.15,27.19,53.55,37.8,62.32l3-3.64L58.55,73.34A2.2,2.2,0,0,0,61.64,73l1-1.2A2.2,2.2,0,0,0,62.34,68.75Z"/></g></g></svg>