<svg xmlns="http://www.w3.org/2000/svg" viewBox="0 0 65.94 72.09"><defs><style>.cls-1{fill:#af8f08;}.cls-2{fill:#39464f;}.cls-3{fill:#f1c40f;}</style></defs><title>规格书1</title><g id="图层_2" data-name="图层 2"><g id="图层_1-2" data-name="图层 1"><path class="cls-1" d="M25.49,18.44a3,3,0,0,0-2.9,3.08,3,3,0,0,0,2.93,2.88,3.09,3.09,0,0,0,3-3A3,3,0,0,0,25.49,18.44Z"/><path class="cls-1" d="M25.49,27.14a3,3,0,0,0-2.9,3.08,3,3,0,0,0,2.93,2.88,3.09,3.09,0,0,0,3-3A3,3,0,0,0,25.49,27.14Z"/><path class="cls-1" d="M28.55,39.17a2.86,2.86,0,0,0-.61-1.75l0,0a3,3,0,0,0-5.38,1.88,2.83,2.83,0,0,0,.27,1.12,3.08,3.08,0,0,0,.93,1.17,2.81,2.81,0,0,0,3.41.12v0A3.07,3.07,0,0,0,28.55,39.17Z"/><path class="cls-1" d="M44.41,21.42a1.72,1.72,0,0,0-.14-.67l-.07-.15a1.75,1.75,0,0,0-.3-.4,1.73,1.73,0,0,0-1.23-.51H32.59a1.74,1.74,0,0,0-1.73,1.59s0,.1,0,.15h0a1.72,1.72,0,0,0,.14.67l.07.15a1.76,1.76,0,0,0,.3.4,1.73,1.73,0,0,0,1.23.51H42.67a1.74,1.74,0,0,0,1.73-1.59s0-.1,0-.15Z"/><path class="cls-1" d="M44.33,29.6l-.06-.16-.07-.15-.12-.19,0,0-.15-.17a1.73,1.73,0,0,0-1.23-.51H32.36l-.11,0-.07,0-.09,0-.07,0-.08,0-.07,0-.07,0-.07,0-.07,0-.07.05-.06,0-.07.06,0,0-.07.07,0,0-.07.08,0,0-.06.09,0,0-.06.1,0,0,0,.11v0l0,.12v0l0,.13v0s0,.1,0,.15,0,.1,0,.15a1.72,1.72,0,0,0,.14.67l.07.15.12.19,0,0,.15.17a1.76,1.76,0,0,0,.26.21,1.73,1.73,0,0,0,1,.3H42.67a1.74,1.74,0,0,0,1.73-1.59s0-.1,0-.15A1.72,1.72,0,0,0,44.33,29.6Z"/><path class="cls-1" d="M44.27,38.52l-.07-.15-.12-.19,0,0L43.9,38a1.73,1.73,0,0,0-1.23-.51H32.36l-.11,0-.07,0-.09,0-.07,0-.08,0-.07,0-.07,0-.07,0-.07,0-.07.05-.06,0-.07.06,0,0-.07.07,0,0-.07.08,0,0-.06.09,0,0-.06.1,0,0,0,.11v0l0,.12v0l0,.13v0s0,.1,0,.15,0,.1,0,.15h0a1.72,1.72,0,0,0,.14.67l.07.15.12.19,0,0,.15.17a1.76,1.76,0,0,0,.26.21,1.73,1.73,0,0,0,1,.3H42.67a1.74,1.74,0,0,0,1.73-1.59s0-.1,0-.15h0a1.72,1.72,0,0,0-.08-.52Z"/><path class="cls-2" d="M62.92,20l-8.65-2v4.24l7.92,1.84L58.3,43.93H41.85a18,18,0,0,0-.44,2.38c-.29,2.25-2.68,4.15-2.68,4.15a7.6,7.6,0,0,1-6.23,1.46h-.34l.17,0a7.57,7.57,0,0,1-2.61-1.15,7.89,7.89,0,0,1-1.68-1.57l0,0a8.17,8.17,0,0,1-1.18-2A8.36,8.36,0,0,1,26.51,46c0-.08,0-.17-.05-.25a8.61,8.61,0,0,1-.2-1.82H9.38L3.83,16.63l9.5-2.12V11.34a7.44,7.44,0,0,1,.06-.92L3,12.72A4.05,4.05,0,0,0,.06,17.41L5.53,44.27a6,6,0,0,0-3.79,5.64V66.2a5.81,5.81,0,0,0,5.63,5.88h52a5.83,5.83,0,0,0,5.63-6V49.82a5.91,5.91,0,0,0-3-5.2l3.86-19.76A4.15,4.15,0,0,0,62.92,20ZM59.71,65.21a2.31,2.31,0,0,1-.57,1.46,1.85,1.85,0,0,1-1.38.6H9a2,2,0,0,1-2-2.06V50.9a2.31,2.31,0,0,1,.57-1.46A1.85,1.85,0,0,1,9,48.84h15a9.36,9.36,0,0,0,.54,1.26c.13.27.54.81.69,1.07a6.5,6.5,0,0,0,1,1.38l.12.13c.31.34.88,1,1.23,1.29a7.28,7.28,0,0,0,1.71,1,12.86,12.86,0,0,0,2.25.81,10,10,0,0,0,5.63,0,9.66,9.66,0,0,0,5-2.75,7.48,7.48,0,0,0,1.42-2.13c.21-.45.39-1.56.54-2H57.76a2,2,0,0,1,.88.24c.19.1.37-.09.5,0a2.89,2.89,0,0,1,.57,1.78Z"/><path class="cls-3" d="M57.5,31.42l.37-1.76a.37.37,0,0,0-.28-.49l-3.33-.77v2.66l2.78.64A.35.35,0,0,0,57.5,31.42Z"/><path class="cls-3" d="M55.76,39.22,56.58,35a.54.54,0,0,0-.28-.49l-2-.47v5.21l1,.24A.5.5,0,0,0,55.76,39.22Z"/><path class="cls-3" d="M13.32,24.36,7.41,25.7a.54.54,0,0,0-.28.49l.64,3a.5.5,0,0,0,.46.29l5.09-1.14Z"/><path class="cls-3" d="M8.78,33.8l.64,3c0,.2.28.29.46.29l3.44-.77v-4l-4.26.94A.37.37,0,0,0,8.78,33.8Z"/><path class="cls-3" d="M19.21,43.61a2.4,2.4,0,0,1-.12-.73v-28a2.4,2.4,0,0,1,.08-.61,2.64,2.64,0,0,1,2.57-1.92h2.18a2.47,2.47,0,0,0,2.42,1.83h14.4a2.47,2.47,0,0,0,2.42-1.83h2.71a2.66,2.66,0,0,1,2.43,1.54,2.41,2.41,0,0,1,.2,1v28a2.41,2.41,0,0,1-.13.77H52V12.72a3.74,3.74,0,0,0-3.81-3.64h-5V8.34A2.44,2.44,0,0,0,40.74,6H37.39a4,4,0,0,0,.46-1.84,4.32,4.32,0,0,0-8.63,0,3.41,3.41,0,0,0,0,.4c0,.12,0,.24.06.35h0A4,4,0,0,0,29.68,6H26.34a2.44,2.44,0,0,0-2.49,2.38v.74H19.37a3.83,3.83,0,0,0-3.49,2.2,3.47,3.47,0,0,0-.31,1.44V43.61h3.65ZM33.54,1.94a2.24,2.24,0,0,1,2.29,2.18A2.16,2.16,0,0,1,34.76,6H32.32a2.16,2.16,0,0,1-1.07-1.84A2.24,2.24,0,0,1,33.54,1.94Z"/></g></g></svg>