<svg xmlns="http://www.w3.org/2000/svg" viewBox="0 0 58.12 72.21"><defs><style>.cls-1{fill:#f8825c;}.cls-2{fill:#39464f;}.cls-3{fill:#ba4b2d;}</style></defs><title>报价单_1</title><g id="图层_2" data-name="图层 2"><g id="图层_1-2" data-name="图层 1"><path class="cls-1" d="M54.42,32H49.56v-.76a2.42,2.42,0,0,0-2.42-2.42H43.89a4.19,4.19,0,1,0-7.49,0H33.14a2.42,2.42,0,0,0-2.42,2.42V32H26.37a3.71,3.71,0,0,0-3.7,3.7V68.51a3.71,3.71,0,0,0,3.7,3.7h28a3.71,3.71,0,0,0,3.7-3.7V35.67A3.71,3.71,0,0,0,54.42,32ZM40.15,24.69a2.22,2.22,0,0,1,1.19,4.1H39a2.22,2.22,0,0,1,1.19-4.1ZM54.69,66.32a2.58,2.58,0,0,1-2.57,2.57H28.66a2.58,2.58,0,0,1-2.37-1.56,2.55,2.55,0,0,1-.2-1V37.86a2.58,2.58,0,0,1,2.57-2.57h2.12a2.43,2.43,0,0,0,2.35,1.86h14a2.43,2.43,0,0,0,2.35-1.86h2.63a2.58,2.58,0,0,1,2.37,1.56,2.55,2.55,0,0,1,.2,1Z"/><path class="cls-2" d="M17.83,6.73l.22.23.2-.23Z"/><path class="cls-2" d="M19.91,65.16H10.72a5.71,5.71,0,0,1-5.58-5.8V11s0-.06,0-.09a5.71,5.71,0,0,1,5.58-5.71h34A5.71,5.71,0,0,1,50.28,11V27.05A5.16,5.16,0,0,1,52.1,29.2h2.26a6.36,6.36,0,0,1,1.07.09V6.85A6.87,6.87,0,0,0,48.57,0H6.85A6.87,6.87,0,0,0,0,6.74s0,.07,0,.11V64a6.87,6.87,0,0,0,6.85,6.85H20.4a6.41,6.41,0,0,1-.49-2.43Z"/><path class="cls-2" d="M9.2,13.44A6.1,6.1,0,0,0,9.62,18a4.18,4.18,0,0,0,1.6,1.68,11.16,11.16,0,0,0,5.08,1.39c6.64.12,13.28.08,19.93.06a6.91,6.91,0,0,1,6.7-.6l.06,0a5.68,5.68,0,0,0,3.84-6c-.23-3.19-2.78-5.4-6.34-5.42H39.9c-4,0-8,0-12,0H26.34c-3.88,0-7.76,0-11.64,0A5.7,5.7,0,0,0,9.2,13.44Z"/><path class="cls-2" d="M19.47,30.84H19c0-.64,0-1.28,0-1.93,0-.44,0-.88,0-1.33,0-.11,0-.22,0-.32-.09-1.28-.61-2.32-2-2.42s-2.21,1-2.23,2.46c0,.54,0,1.07,0,1.61s0,1.27,0,1.91H11.44c-1.43,0-2.64.51-2.74,2a1.91,1.91,0,0,0,.46,1.48,2.72,2.72,0,0,0,2,.75l3.55,0c0,.58,0,1.16,0,1.74,0,.38,0,.76,0,1.14s0,.6,0,.9a2.73,2.73,0,0,0,.48,1.61,1.87,1.87,0,0,0,1.65.71c1.42-.05,2-1.11,2-2.45,0-.25,0-.51,0-.76,0-1,0-1.93,0-2.89h1a6.39,6.39,0,0,1,.77-2.52,6.48,6.48,0,0,1,1.34-1.69C21.19,30.83,20.33,30.83,19.47,30.84Z"/><path class="cls-2" d="M12.21,56.49l-.67.68c-.9.94-1.15,2.07-.25,3l.12.12c1,1,2.19.62,3.17-.3s1.73-1.68,2.58-2.54L19.73,60l.18.16V48.78l-.22.2q-1.27,1.24-2.53,2.49c-.81-.81-1.62-1.63-2.44-2.43-1-1-2.22-1.5-3.35-.53a2,2,0,0,0-.22,2.86,4,4,0,0,0,.39.46q1.3,1.34,2.62,2.67l-.7.72Z"/><path class="cls-3" d="M49.59,50.09a42.56,42.56,0,0,0-3.75-2.36c-.19-.12-.57-.26-.64-.18a6,6,0,0,0-1.33,1.66c-.33.81.11,1.44.94,1.82a9.39,9.39,0,0,1,1.79,1.11,1.49,1.49,0,0,1,.58,1c0,2.75,0,5.5,0,8.25a1.77,1.77,0,0,1-2,2q-4.7,0-9.41,0c-1.49,0-2.08-.63-2.09-2.15a54.45,54.45,0,0,0,0-5.7c-.25-2.24.36-3.8,2.56-4.55.91-.31,1-1,.86-1.78a1.63,1.63,0,0,0-2.42-1.22c-1,.62-2,1.26-3.08,1.84A2.3,2.3,0,0,0,30.27,52c0,3.45.09,6.91,0,10.36-.06,2.08.64,3.53,2.57,4.36H48a3.74,3.74,0,0,0,2.54-3.52c0-3.81,0-7.61,0-11.42A2.55,2.55,0,0,0,49.59,50.09Z"/><path class="cls-3" d="M37.9,46.19c.26-.14.5-.33.84-.56,0,1.37,0,2.59,0,3.82s.61,2,1.63,2.06,1.73-.77,1.75-2.06,0-2.45,0-3.84l.41.28c1,.72,1.89.71,2.54,0a1.74,1.74,0,0,0-.29-2.54c-1-1-2-2-3-3-.86-.81-1.66-.93-2.44-.22-1.27,1.16-2.49,2.38-3.65,3.65a1.5,1.5,0,0,0,.1,2.11A1.57,1.57,0,0,0,37.9,46.19Z"/><path class="cls-3" d="M43.64,53.22q-3.21,0-6.42,0a1.69,1.69,0,1,0,0,3.37c1.05,0,2.11,0,3.16,0s2.18,0,3.26,0a1.69,1.69,0,1,0,0-3.36Z"/><path class="cls-3" d="M43.61,58.29q-3.21,0-6.42,0A1.71,1.71,0,0,0,35.37,60a1.74,1.74,0,0,0,1.88,1.71c1.05,0,2.11,0,3.16,0s2.11,0,3.16,0A1.74,1.74,0,0,0,45.49,60,1.71,1.71,0,0,0,43.61,58.29Z"/></g></g></svg>