<svg xmlns="http://www.w3.org/2000/svg" viewBox="0 0 42.4 57.39"><defs><style>.cls-1{fill:#51a882;}.cls-2{fill:#9cd7bf;}.cls-3{fill:#39464f;}</style></defs><title>结算单1</title><g id="图层_2" data-name="图层 2"><g id="图层_1-2" data-name="图层 1"><path class="cls-1" d="M39.22,24.51H19.87a3.19,3.19,0,0,0-3.18,3.13s0,0,0,.05V54.21a3.19,3.19,0,0,0,3.18,3.18H39.22a3.19,3.19,0,0,0,3.18-3.13s0,0,0-.05V27.69A3.19,3.19,0,0,0,39.22,24.51ZM40,29.74V52.05s0,0,0,0a2.65,2.65,0,0,1-2.59,2.65H21.66a2.65,2.65,0,0,1-2.59-2.69V29.6s0,0,0,0a2.65,2.65,0,0,1,2.59-2.65H37.43A2.65,2.65,0,0,1,40,29.6Z"/><path class="cls-2" d="M35.47,28.78H28.91c-1.8,0-3.6,0-5.4,0a2.65,2.65,0,0,0-2.55,2,2.83,2.83,0,0,0,.19,2.14,1.94,1.94,0,0,0,.74.78,5.18,5.18,0,0,0,2.36.64c3.58.07,7.17,0,10.76,0h.19a5.13,5.13,0,0,0,.73-.07,2.75,2.75,0,0,0-.46-5.48Z"/><path class="cls-1" d="M27.16,38.83c-.56,0-1.12,0-1.68,0,0-.3,0-.6,0-.89s0-.41,0-.62c0-.66-.24-1.22-.92-1.27s-1,.48-1,1.14c0,.25,0,.5,0,.75s0,.59,0,.89H22c-.66,0-1.22.24-1.27.92s.48,1,1.14,1h1.65c0,.45,0,.89,0,1.34,0,.14,0,.28,0,.42,0,.63.32,1.1,1,1.07s.92-.51.94-1.14c0-.12,0-.24,0-.35,0-.45,0-.9,0-1.34l1.75,0c.63,0,1.1-.32,1.07-1S27.79,38.85,27.16,38.83Z"/><circle class="cls-1" cx="35.09" cy="52.23" r="0.86"/><path class="cls-1" d="M37.25,48.87H32.94c-.66,0-1.15.24-1.16.92a.88.88,0,0,0,.62.89,1.67,1.67,0,0,0,.52.1c.72,0,1.44,0,2.15,0h0c.75,0,1.5,0,2.25,0s1.1-.34,1.05-1S37.86,48.87,37.25,48.87Z"/><path class="cls-1" d="M27.37,47.16c-.46-.53-1.06-.38-1.54.08l-1.18,1.16-1.13-1.13c-.47-.46-1-.7-1.55-.25s-.38,1.06.08,1.54l1.22,1.24-.91.93L22,51A.94.94,0,0,0,22,52.5a1,1,0,0,0,1.47-.14c.41-.38.8-.78,1.2-1.18l1.19,1.16a.94.94,0,0,0,1.46.06,1,1,0,0,0-.14-1.47l-.2-.21L26,49.79l1.07-1.08C27.58,48.24,27.82,47.68,27.37,47.16Z"/><path class="cls-1" d="M37.3,38.83c-.72,0-1.44,0-2.16,0H32.41c-.63,0-1.16.24-1.2.92s.45,1,1.08,1c1,0,1.9,0,2.85,0l2.22,0a.91.91,0,0,0,1-1C38.35,39.11,37.89,38.85,37.3,38.83Z"/><path class="cls-1" d="M35.09,48.47a.85.85,0,0,0,0-1.71h0a.85.85,0,0,0-.1,1.7Z"/><path class="cls-3" d="M10.92,26.12a3.38,3.38,0,0,0,3.32-3.3,3.31,3.31,0,0,0-3.35-3.23A3.25,3.25,0,0,0,7.7,23,3.3,3.3,0,0,0,10.92,26.12Z"/><path class="cls-3" d="M10.92,35.65a3.38,3.38,0,0,0,3.32-3.3c0-.06,0-.12,0-.17s0-.07,0-.1A3.3,3.3,0,0,0,10.9,29a3.2,3.2,0,0,0-3.19,3.14,3.34,3.34,0,0,0,0,.35A3.3,3.3,0,0,0,10.92,35.65Z"/><path class="cls-3" d="M14.24,42.31a3.13,3.13,0,0,0-.66-1.92l0,0a3.27,3.27,0,0,0-5.9,2.06A3.1,3.1,0,0,0,8,43.66a3.38,3.38,0,0,0,1,1.28,3.08,3.08,0,0,0,3.74.13v0A3.36,3.36,0,0,0,14.24,42.31Z"/><path class="cls-3" d="M15.06,52H6.75a2.91,2.91,0,0,1-2.67-1.76,2.87,2.87,0,0,1-.22-1.1V17.07a2.91,2.91,0,0,1,2.9-2.9H9.16a2.73,2.73,0,0,0,2.65,2.1H27.59a2.73,2.73,0,0,0,2.65-2.1h3a2.91,2.91,0,0,1,2.67,1.76,2.87,2.87,0,0,1,.22,1.1v5.75H40V14.59a4.18,4.18,0,0,0-4.17-4.17H30.31V9.57a2.73,2.73,0,0,0-2.72-2.72H23.93a4.73,4.73,0,1,0-8.46,0H11.81A2.73,2.73,0,0,0,9.08,9.57v.85H4.17A4.18,4.18,0,0,0,0,14.59v37a4.18,4.18,0,0,0,4.17,4.17h11a5.17,5.17,0,0,1-.16-1.29ZM17.19,4.73A2.5,2.5,0,1,1,21,6.84H18.36A2.5,2.5,0,0,1,17.19,4.73Z"/><path class="cls-3" d="M31.05,21.51A1.9,1.9,0,0,0,29.71,21h-11a1.91,1.91,0,0,0-1.9,1.74c0,.05,0,.11,0,.16h0a1.89,1.89,0,0,0,.15.74l.08.17.08.12a5.14,5.14,0,0,1,3.17-1.1H31.61a1.89,1.89,0,0,0-.15-.67L31.38,22A1.92,1.92,0,0,0,31.05,21.51Z"/></g></g></svg>