<svg xmlns="http://www.w3.org/2000/svg" viewBox="0 0 54.87 76.59"><defs><style>.cls-1{fill:#39464f;}.cls-2{fill:#9cd7bf;}</style></defs><title>订单</title><g id="图层_2" data-name="图层 2"><g id="图层_1-2" data-name="图层 1"><path class="cls-1" d="M14.95,26.9a4.47,4.47,0,0,0-4.37,4.64A4.54,4.54,0,0,0,15,35.87a4.64,4.64,0,0,0,4.56-4.53A4.54,4.54,0,0,0,14.95,26.9Z"/><path class="cls-1" d="M19.54,44.19s0-.1,0-.14A4.53,4.53,0,0,0,15,39.83a4.4,4.4,0,0,0-4.38,4.31,4.59,4.59,0,0,0,0,.48A4.54,4.54,0,0,0,15,49a4.64,4.64,0,0,0,4.56-4.53C19.55,44.35,19.54,44.27,19.54,44.19Z"/><path class="cls-1" d="M19.55,58.09a4.3,4.3,0,0,0-.91-2.63l0,0a4.49,4.49,0,0,0-8.1,2.83A4.25,4.25,0,0,0,11,60a4.64,4.64,0,0,0,1.41,1.75,4.23,4.23,0,0,0,5.13.17l0,0A4.62,4.62,0,0,0,19.55,58.09Z"/><path class="cls-1" d="M23.33,32.63a2.64,2.64,0,0,0,.45.6,2.61,2.61,0,0,0,1.85.77H40.79a2.62,2.62,0,0,0,2.6-2.39c0-.07,0-.15,0-.23h0a2.59,2.59,0,0,0-.21-1l-.11-.23a2.64,2.64,0,0,0-.45-.6,2.61,2.61,0,0,0-1.85-.77H25.63A2.62,2.62,0,0,0,23,31.16c0,.07,0,.15,0,.23h0a2.59,2.59,0,0,0,.21,1Z"/><path class="cls-1" d="M23,44.47a2.59,2.59,0,0,0,.21,1l.11.23a2.63,2.63,0,0,0,.18.28l0,.07a2.52,2.52,0,0,0,.61.57,2.6,2.6,0,0,0,1.46.45H40.79a2.62,2.62,0,0,0,2.6-2.39c0-.07,0-.15,0-.23h0a2.59,2.59,0,0,0-.12-.78q0-.12-.09-.24l-.11-.23a2.62,2.62,0,0,0-.18-.28l-.05-.07a2.65,2.65,0,0,0-.22-.25,2.61,2.61,0,0,0-1.85-.77H25.28l-.16,0-.1,0-.14,0-.11,0-.12,0-.11.05-.11.05-.11.06-.1.06-.11.08-.09.06-.11.09-.07.07-.1.11-.06.07-.1.12-.05.07-.09.13,0,.06-.08.15,0,.06-.07.17,0,.05-.06.18v0c0,.07,0,.13,0,.2v0c0,.07,0,.15,0,.22s0,.15,0,.23Z"/><path class="cls-1" d="M25.37,55.54h-.09l-.16,0-.1,0-.14,0-.11,0-.12,0-.11.05-.11.05-.11.06-.1.06L24.1,56l-.09.06-.11.09-.07.07-.1.11-.06.07-.1.12-.05.07-.09.13,0,.06L23.3,57l0,.06-.07.17,0,.05-.06.18v0c0,.07,0,.13,0,.2v0c0,.07,0,.15,0,.22s0,.15,0,.23h0a2.59,2.59,0,0,0,.21,1l.11.23a2.63,2.63,0,0,0,.18.28l0,.07a2.52,2.52,0,0,0,.61.57,2.6,2.6,0,0,0,1.46.45h1.55V55.52H25.37Z"/><path class="cls-1" d="M49.14,14.31H41.62V13.14A3.75,3.75,0,0,0,37.88,9.4h-5a6.49,6.49,0,1,0-11.61,0h-5a3.75,3.75,0,0,0-3.74,3.74v1.17H5.73A5.75,5.75,0,0,0,0,20V70.86a5.75,5.75,0,0,0,5.73,5.73H27.18V71.45H9.28A4,4,0,0,1,5.61,69a3.94,3.94,0,0,1-.3-1.51V23.44a4,4,0,0,1,4-4h3.28a3.75,3.75,0,0,0,3.64,2.88H37.88a3.75,3.75,0,0,0,3.64-2.88h4.07a4,4,0,0,1,3.66,2.42,3.94,3.94,0,0,1,.3,1.51V49h5.31V20A5.75,5.75,0,0,0,49.14,14.31ZM23.61,6.49A3.44,3.44,0,1,1,28.88,9.4H25.21A3.43,3.43,0,0,1,23.61,6.49Z"/><path class="cls-2" d="M33.67,51.78H29.92V76.59h3.75v-.27l4.39-4.43,12.1-12.21,4.13-4.16.58-.58V51.78H33.67Zm0,18.88V55.52h15Z"/></g></g></svg>