<svg xmlns="http://www.w3.org/2000/svg" viewBox="0 0 50.87 55.75"><defs><style>.cls-1{fill:none;}.cls-2{fill:#1abeff;}.cls-3{fill:#4b6f9b;}</style></defs><title>询价</title><g id="图层_2" data-name="图层 2"><g id="图层_1-2" data-name="图层 1"><path class="cls-1" d="M44.42,28.44l-.21.22.9.66v-2A4.21,4.21,0,0,1,44.42,28.44Z"/><path class="cls-2" d="M42.14,29.74l.12,0Z"/><path class="cls-2" d="M41.61,29.79l-.32,0,.32,0Z"/><path class="cls-2" d="M41.07,28.1h0Z"/><path class="cls-2" d="M41.61,28.16a1.93,1.93,0,0,0,.38,0,1.94,1.94,0,0,1-.39,0Z"/><path class="cls-2" d="M40.7,29.68h0a4.1,4.1,0,0,0,.58.09A4.1,4.1,0,0,1,40.7,29.68Z"/><path class="cls-2" d="M42.14,29.74a3.57,3.57,0,0,1-.52,0h0A3.6,3.6,0,0,0,42.14,29.74Z"/><path class="cls-2" d="M42.75,29.6a3.52,3.52,0,0,1-.5.13A3.49,3.49,0,0,0,42.75,29.6Z"/><path class="cls-2" d="M42.11,28.09l-.11,0Z"/><path class="cls-2" d="M41.61,28.16h0a2.41,2.41,0,0,1-.52-.06A2.19,2.19,0,0,0,41.61,28.16Z"/><path class="cls-2" d="M41.06,28.1h0Z"/><path class="cls-3" d="M35.73,4.27h-4.8a6.43,6.43,0,0,0-12.11,0H14v8.66H35.73ZM24.87,8.6A2.17,2.17,0,1,1,27,6.43,2.17,2.17,0,0,1,24.87,8.6Z"/><path class="cls-2" d="M42.88,23.83c-1.36-1.42-2.75-2.81-4.17-4.16a3.07,3.07,0,0,0-1.78-1,1.78,1.78,0,0,0-.46,0,2.31,2.31,0,0,0-1.26.64c-1.78,1.62-3.48,3.33-5.1,5.1a2.09,2.09,0,0,0,.13,3,2.05,2.05,0,0,0,1.75.79,2.06,2.06,0,0,1-1.73-.79,2.09,2.09,0,0,1-.13-3c1.63-1.77,3.33-3.48,5.1-5.1a2.63,2.63,0,0,1,.82-.52,2.66,2.66,0,0,0-.8.51c-1.78,1.62-3.48,3.33-5.1,5.1a2.09,2.09,0,0,0,.13,3,2.05,2.05,0,0,0,1.75.79,2.56,2.56,0,0,0,.63-.12,3.51,3.51,0,0,0,.58-.24,4.93,4.93,0,0,0,.51-.32l.64-.45c0,1.9,0,3.61,0,5.31a5.08,5.08,0,0,0,0,.61,2.28,2.28,0,0,0,2.24,2.27h0A2.34,2.34,0,0,0,39.11,33a4.57,4.57,0,0,0,0-.6c0-1.71,0-3.41,0-5.34l.55.37.12.08a4.88,4.88,0,0,0,.66.37,2.76,2.76,0,0,0,1.2.3,2.07,2.07,0,0,0,1.59-.79C44.19,26.34,44.08,25.07,42.88,23.83Z"/><path class="cls-2" d="M32,28.21a2.56,2.56,0,0,0,.63-.12l0,0A2.61,2.61,0,0,1,32,28.21Z"/><path class="cls-3" d="M45.12,27.34v2l3.49,2.56a6.64,6.64,0,0,1,1.25.76V9.84a4.3,4.3,0,0,0-4.27-4.33h-7.9v4.81h7.43V24.43A3.68,3.68,0,0,1,45.12,27.34Z"/><path class="cls-3" d="M20.83,48.9H4.74V10.32h7.43V5.51H4.27A4.3,4.3,0,0,0,0,9.84V49.38a4.3,4.3,0,0,0,4.27,4.33H21.54a6.59,6.59,0,0,1-.72-3Z"/><path class="cls-2" d="M30.8,29.68l.06,0Z"/><path class="cls-2" d="M40.69,32.41c0-.9,0-1.8,0-2.73h0c0,.93,0,1.83,0,2.73a6.17,6.17,0,0,1-.07.82,5.43,5.43,0,0,1-.18.8,5.43,5.43,0,0,0,.18-.8A6.17,6.17,0,0,0,40.69,32.41Z"/><path class="cls-2" d="M31.12,29.76l.15,0Z"/><path class="cls-2" d="M32.75,33c0-.2,0-.41,0-.61q0-.83,0-1.67,0,.84,0,1.67C32.71,32.61,32.73,32.82,32.75,33Z"/><path class="cls-2" d="M31.45,29.81l.36,0Z"/><path class="cls-2" d="M36.49,36.89h0a3.72,3.72,0,0,1-3.23-2A3.72,3.72,0,0,0,36.49,36.89Z"/><path class="cls-2" d="M32.05,29.82a3.79,3.79,0,0,0,.64-.09h0a3.79,3.79,0,0,1-.64.09h0Z"/><path class="cls-2" d="M50.64,36.41a2.93,2.93,0,0,0-.82-1.63l-.16-.12a5.06,5.06,0,0,0-1.87-1.37l-5-3.7h0a3.49,3.49,0,0,1-.5.13l-.12,0a3.6,3.6,0,0,1-.52,0h0l-.32,0a4.1,4.1,0,0,1-.58-.09c0,.93,0,1.83,0,2.73a6.17,6.17,0,0,1-.07.82,5.43,5.43,0,0,1-.18.8,3.81,3.81,0,0,1-3.72,2.87h-.24a3.72,3.72,0,0,1-3.23-2,4.91,4.91,0,0,1-.5-1.63c0-.06,0-.13,0-.19s0-.41,0-.61q0-.83,0-1.67c0-.34,0-.67,0-1a3.79,3.79,0,0,1-.64.09h-.23l-.36,0-.19,0-.15,0-.25-.06-.06,0-.28-.09h0l-5.16,3.79a5.06,5.06,0,0,0-2.77,3.39,5,5,0,0,0-.14,1.16v12.8a5,5,0,0,0,5,5H45.85a5,5,0,0,0,5-5V37.92A5,5,0,0,0,50.64,36.41ZM41.09,51.23c-.76,0-1.51,0-2.27,0H34.44c-.76,0-1.52,0-2.27,0a2.42,2.42,0,0,1-2.62-2.38,2.39,2.39,0,0,1,2.54-2.32q2.27,0,4.54,0t4.53,0a2.39,2.39,0,0,1,2.62,2.38A2.43,2.43,0,0,1,41.09,51.23Zm.11-7.09c-.78,0-1.56,0-2.35,0H34.39c-.76,0-1.52,0-2.27,0a2.36,2.36,0,1,1,0-4.7q2.27,0,4.54,0t4.54,0a2.36,2.36,0,1,1,0,4.7Z"/><path class="cls-2" d="M36.73,35.27l.19,0-.29,0Z"/><path class="cls-2" d="M39.08,30.42c0,.22,0,.44,0,.65C39.08,30.86,39.08,30.64,39.08,30.42Z"/><path class="cls-2" d="M31.46,28.17h0Z"/><path class="cls-2" d="M31.82,28.21h0Z"/><polygon class="cls-2" points="36.61 35.27 36.63 35.27 36.62 35.27 36.61 35.27"/><path class="cls-2" d="M32.25,28.17l-.26,0Z"/><path class="cls-2" d="M30.52,29.58l.28.09Z"/><path class="cls-2" d="M40.45,34a3.81,3.81,0,0,1-3.72,2.87h0A3.81,3.81,0,0,0,40.45,34Z"/><path class="cls-2" d="M31.26,29.78l.19,0Z"/><polygon class="cls-2" points="31.82 29.83 31.82 29.83 31.82 29.83 31.82 29.83"/><path class="cls-2" d="M30.87,29.7l.25.06Z"/><path class="cls-2" d="M32.69,29.73h0c0,.34,0,.68,0,1C32.69,30.41,32.69,30.07,32.69,29.73Z"/><path class="cls-2" d="M31,28a1.9,1.9,0,0,0,.43.13,2,2,0,0,1-.34-.1Z"/><path class="cls-2" d="M32.29,28.16h0Z"/><path class="cls-2" d="M31.78,28.2a1.89,1.89,0,0,1-.32,0Z"/><path class="cls-2" d="M32,28.2h0Z"/><path class="cls-2" d="M39.08,29.74c0,.23,0,.45,0,.67C39.08,30.19,39.08,30,39.08,29.74Z"/><polygon class="cls-2" points="36.63 35.27 36.64 35.27 36.63 35.27 36.63 35.27"/><polygon class="cls-2" points="36.6 35.27 36.61 35.27 36.59 35.27 36.6 35.27"/><path class="cls-2" d="M37.13,35.24l-.2,0Z"/></g></g></svg>