<svg xmlns="http://www.w3.org/2000/svg" viewBox="0 0 53.91 49.99"><defs><style>.cls-1{fill:#1abeff;}.cls-2{fill:#4b6f9b;}</style></defs><title>坞修进度</title><g id="图层_2" data-name="图层 2"><g id="图层_1-2" data-name="图层 1"><path class="cls-1" d="M33.31,28.07a6.55,6.55,0,1,1-6.55-6.55c1.54,0,13.2-8.72,14.31-7.82C42.57,14.9,33.31,26,33.31,28.07Z"/><path class="cls-2" d="M51.79,17.33a28.25,28.25,0,0,0-5.77-9A26.39,26.39,0,0,0,27,0h-.08a26.38,26.38,0,0,0-19,8.31A29.17,29.17,0,0,0,0,28.95a2.83,2.83,0,0,0,0,.51A29.06,29.06,0,0,0,8.76,49.27a2.52,2.52,0,0,0,1.76.72,2.56,2.56,0,0,0,1.92-.89,2.8,2.8,0,0,0-.17-3.8A23.29,23.29,0,0,1,5.43,31.83h2.9a2.7,2.7,0,0,0,0-5.4H5.26a23.29,23.29,0,0,1,6.32-14.31A21.31,21.31,0,0,1,23.76,5.65v3.5a2.64,2.64,0,0,0,2.59,2.59h.11a2.64,2.64,0,0,0,2.48-2.61V5.5a21.31,21.31,0,0,1,13.39,6.61,23.29,23.29,0,0,1,6.31,14.31H45.57a2.7,2.7,0,0,0,0,5.4h2.9a23.3,23.3,0,0,1-6.73,13.36A2.79,2.79,0,0,0,41.5,49a2.52,2.52,0,0,0,3.68.25l.09-.08A29.09,29.09,0,0,0,53.88,29.5h0v-.1a2.84,2.84,0,0,0,0-.4v0A29.27,29.27,0,0,0,51.79,17.33Z"/></g></g></svg>