<svg xmlns="http://www.w3.org/2000/svg" viewBox="0 0 52.82 49.45"><defs><style>.cls-1{fill:#4b6f9b;}.cls-2{fill:#19c1ff;}</style></defs><title>报告</title><g id="图层_2" data-name="图层 2"><g id="图层_1-2" data-name="图层 1"><path class="cls-1" d="M46.95,5.49H41.08V2.75a2.94,2.94,0,0,0-5.87,0V5.49H17.61V2.75A2.85,2.85,0,0,0,14.67,0a2.85,2.85,0,0,0-2.93,2.75V5.49H5.87A5.69,5.69,0,0,0,0,11V44a5.69,5.69,0,0,0,5.87,5.49H46.95A5.69,5.69,0,0,0,52.82,44V11A5.69,5.69,0,0,0,46.95,5.49ZM48.3,45.22H4.52V10.16H48.3Z"/><path class="cls-2" d="M12,24.8h5.65a2.78,2.78,0,1,0,0-5.55H12a2.78,2.78,0,1,0,0,5.55Z"/><path class="cls-2" d="M12,35.9h5.65a2.78,2.78,0,1,0,0-5.55H12a2.78,2.78,0,1,0,0,5.55Z"/><path class="cls-2" d="M29.5,34.84a2.84,2.84,0,0,0,2.22,1.06h0A2.84,2.84,0,0,0,34,34.79l8.47-11.1a2.74,2.74,0,0,0-.56-3.88,2.86,2.86,0,0,0-4,.55l-6.26,8.21-1.61-2a2.86,2.86,0,0,0-3.87-.46A2.74,2.74,0,0,0,25.62,30Z"/></g></g></svg>