<svg xmlns="http://www.w3.org/2000/svg" viewBox="0 0 29 29"><title>save</title><g id="图层_2" data-name="图层 2"><g id="图层_1-2" data-name="图层 1"><path d="M22,0H2.21A2.21,2.21,0,0,0,0,2.21H0V26.79A2.21,2.21,0,0,0,2.21,29H26.79A2.21,2.21,0,0,0,29,26.79h0V6.9ZM3.63,4.38a.56.56,0,0,1,.56-.57H18.48a.57.57,0,0,1,.57.57V7.74a.57.57,0,0,1-.57.57H4.19a.56.56,0,0,1-.56-.56h0ZM25.39,24.84a.56.56,0,0,1-.1.32h0l-.14.14h0a.57.57,0,0,1-.33.1H4.19a.56.56,0,0,1-.38-.14h0l0,0h0a.55.55,0,0,1-.14-.37V14.73a.56.56,0,0,1,.56-.57H24.82a.57.57,0,0,1,.57.57Zm-1.87-9v2.7a.45.45,0,0,1-.45.45H20.35a.45.45,0,0,1-.45-.45h0v-2.7a.45.45,0,0,1,.45-.45h2.71A.45.45,0,0,1,23.51,15.82Z"/></g></g></svg>