<svg xmlns="http://www.w3.org/2000/svg" viewBox="0 0 51.53 58.33"><defs><style>.cls-1{fill:#f1b134;}</style></defs><title>船舶管理公司</title><g id="图层_2" data-name="图层 2"><g id="图层_1-2" data-name="图层 1"><path class="cls-1" d="M51.5,50.23a5.26,5.26,0,0,0-2.24-4.31,1.22,1.22,0,0,1-.55-1.11q0-11.69,0-23.39a1.34,1.34,0,0,1,.61-1.18A5.51,5.51,0,0,0,51.5,15.9c0-.7,0-1.4,0-2.1a5.54,5.54,0,0,0-5.84-5.86H36.54c0-.89,0-1.67,0-2.45A5.21,5.21,0,0,0,31.37.07q-5.55-.14-11.1,0a5.51,5.51,0,0,0-5.45,5.74c0,.67,0,1.34,0,2.12h-1c-2.72,0-5.44,0-8.16,0A5.66,5.66,0,0,0,0,13c-.08.86,0,1.74,0,2.61a5.88,5.88,0,0,0,2.25,4.68,1.64,1.64,0,0,1,.53,1.1c0,7.82,0,15.65,0,23.47A1.22,1.22,0,0,1,2.29,46,5.44,5.44,0,0,0,0,50.6c0,.56,0,1.12,0,1.68a5.79,5.79,0,0,0,6,6H45.66a5.59,5.59,0,0,0,5.75-4.74A19.25,19.25,0,0,0,51.5,50.23Zm-5.72,7.08q-19.93,0-39.86,0a4.75,4.75,0,0,1-4.89-5c0-.56,0-1.12,0-1.68a4.46,4.46,0,0,1,2.23-4.15,1.09,1.09,0,0,0,.58-1.08q0-12.32,0-24.64a1.19,1.19,0,0,0-.62-1.14,4.59,4.59,0,0,1-2.19-4c0-.64,0-1.29,0-1.93a4.65,4.65,0,0,1,4.7-4.76c3,0,6.06,0,9.08,0h1c0-1.16,0-2.19,0-3.22a4.43,4.43,0,0,1,3.7-4.53,6.86,6.86,0,0,1,1.33-.14c3.36,0,6.73,0,10.09,0a4.24,4.24,0,0,1,4.29,2.77,5.65,5.65,0,0,1,.29,1.8c0,1.06,0,2.12,0,3.32h10.1a4.52,4.52,0,0,1,4.85,4.9,19.8,19.8,0,0,1-.14,2.93,4.05,4.05,0,0,1-2,2.94,1.14,1.14,0,0,0-.62,1.14q0,12.28,0,24.56a1.08,1.08,0,0,0,.58,1.07,4.37,4.37,0,0,1,2.21,3.9c0,.73,0,1.46,0,2.19A4.62,4.62,0,0,1,45.78,57.31Z"/><path class="cls-1" d="M45.47,11.83H35.12v1c0,1.65,0,3.31,0,5a1.36,1.36,0,0,1-.47.95c-2.72,1.93-5.47,3.81-8.19,5.73a.8.8,0,0,1-1.1,0c-2.7-1.9-5.42-3.76-8.11-5.68a1.44,1.44,0,0,1-.52-1c0-1.93,0-3.86,0-5.89-3.73,0-7.31,0-10.9,0A1.53,1.53,0,0,0,4.21,13.5c0,.62,0,1.23,0,1.85a1.7,1.7,0,0,0,1.86,1.89c.8,0,1,.26,1,1Q7,33,7,47.78v.8a1.82,1.82,0,0,1-.32.11c-2.3.2-2.49.4-2.49,2.7q0,.17,0,.34c0,1.91.53,2.43,2.47,2.43H45.62a1.74,1.74,0,0,0,2-1.95c0-.62,0-1.23,0-1.85a1.56,1.56,0,0,0-1.55-1.64c-.39,0-.78,0-1.21,0V17.27h.86c1.3,0,1.88-.61,1.91-1.92,0-.45,0-.9,0-1.35C47.61,12.32,47.14,11.84,45.47,11.83ZM33.9,33.49l-1.2.08V48.64H19.16V33.58l-1.43-.08V31H33.9Z"/><path class="cls-1" d="M19.5,17.45q2.9,2.07,5.88,4a1,1,0,0,0,.92,0q2.93-2,5.8-4a1.42,1.42,0,0,0,.52-1c0-3.59,0-7.18,0-10.76C32.64,4.43,32.2,4,30.93,4H25.55C24,4,22.41,4,20.84,4,19.52,4,19,4.54,19,5.83c0,1.74,0,3.48,0,5.21s0,3.64,0,5.47A1.34,1.34,0,0,0,19.5,17.45Zm2.36-6.73c.62-.1,1.23-.23,1.85-.3A1.31,1.31,0,0,0,25,9.5a16.47,16.47,0,0,1,.9-1.78,20.65,20.65,0,0,1,1,1.88,1.23,1.23,0,0,0,1.14.81c.63.08,1.26.19,1.89.29l.15.25a13.93,13.93,0,0,0-1.48,1.35,1.88,1.88,0,0,0-.39,1.15,16.89,16.89,0,0,0,.32,2.16c-.73-.35-1.36-.61-1.94-1a1.14,1.14,0,0,0-1.31,0c-.54.33-1.13.58-1.88,1a20.14,20.14,0,0,1,.3-2.08,1.16,1.16,0,0,0-.44-1.31c-.49-.41-.95-.86-1.42-1.29Z"/></g></g></svg>