<svg xmlns="http://www.w3.org/2000/svg" viewBox="0 0 52.44 54.4"><defs><style>.cls-1{fill:#47c18b;}</style></defs><title>船舶</title><g id="图层_2" data-name="图层 2"><g id="图层_1-2" data-name="图层 1"><path class="cls-1" d="M51.77,50.47a12.85,12.85,0,0,0-5.87-2.71l6.41-18.48a1.77,1.77,0,0,0,.06-.2A2,2,0,0,0,51,26.64l-6.79-2V8.1a1.22,1.22,0,0,0,0-.15,2,2,0,0,0-.2-.88,2,2,0,0,0-1.83-1.16h-3.9V2a2.17,2.17,0,0,0-.06-.51,2,2,0,0,0-2-1.52H16.05a2,2,0,0,0-2,1.72A2.46,2.46,0,0,0,14,2v3.9H10a2,2,0,0,0-2,2V24.67l-6.52,2A2,2,0,0,0,.09,29.14a1.78,1.78,0,0,0,.07.2l6.23,18A12.24,12.24,0,0,0,.68,50.06a1.92,1.92,0,0,0,2.54,2.88,8.07,8.07,0,0,1,5.14-2,7.38,7.38,0,0,1,.82,0l2,.23c1,.11,1.41.16,1.85.22l6.4,1.42,6.67,1.48a1.87,1.87,0,0,0,.42,0h0a1.87,1.87,0,0,0,.42,0l6.73-1.5,5-1.11h.12l.27,0a16.15,16.15,0,0,1,2-.19l2.17-.12.55,0a8.84,8.84,0,0,1,5.5,1.94,1.92,1.92,0,0,0,2.54-2.88ZM51,52.34a.64.64,0,0,1-.49.22.67.67,0,0,1-.44-.16,10.06,10.06,0,0,0-6.33-2.25l-.63,0L41,50.28a16.64,16.64,0,0,0-2.09.2h-.31l-.18,0-5,1.11-6.75,1.5h-.32l-6.67-1.48-6.4-1.42h-.1L11.33,50h0l-.28,0-1.7-.2a8.24,8.24,0,0,0-1-.06A9.22,9.22,0,0,0,2.4,52a.64.64,0,0,1-.43.16A.66.66,0,0,1,1.53,51a11.05,11.05,0,0,1,5.1-2.46l1.45-.27-.49-1.4-6.23-18v-.06a.35.35,0,0,1,0-.08.76.76,0,0,1,.51-.94l6.52-1.94.9-.27V7.93A.76.76,0,0,1,10,7.18H15.3V2s0-.07,0-.11a.77.77,0,0,1,.75-.64H36.27a.75.75,0,0,1,.73.57A.91.91,0,0,1,37,2V7.19h5.16a.77.77,0,0,1,.69.44h0A.74.74,0,0,1,43,8V25.56l.9.27,6.79,2a.75.75,0,0,1,.52.91h0l0,.08L44.71,47.35l-.49,1.4,1.45.26a11.47,11.47,0,0,1,5.26,2.41l.07.06a.68.68,0,0,1,.16.39A.63.63,0,0,1,51,52.34Z"/><path class="cls-1" d="M28.2,24V44.31h0a2,2,0,0,1-4,0V24.05L4.62,29.9l6.05,17.43,3.86.53,5.67,1.26,6.3,1.4,6.3-1.4,5.67-1.26,3.15-.27h.06l6.14-17.68Z"/><path class="cls-1" d="M26.16,19.32h0a2.09,2.09,0,0,1,.59.08l13.39,4V10h-3.9a2,2,0,0,1-2-2V4H18.08v3.9a2,2,0,0,1-2,2H12v13.5L25.59,19.4A2,2,0,0,1,26.16,19.32Z"/></g></g></svg>