<svg xmlns="http://www.w3.org/2000/svg" viewBox="0 0 48.29 60.28"><defs><style>.cls-1{fill:#ff6061;}</style></defs><title>船东</title><g id="图层_2" data-name="图层 2"><g id="图层_1-2" data-name="图层 1"><path class="cls-1" d="M48.25,51.34c-.27-2.36-.52-4.72-1-7a22.33,22.33,0,0,0-5-10.49c-1.07-1.22-2.29-2.29-3.48-3.46,0,0,0-.11.09-.2a16.9,16.9,0,0,0,1.86-8.38q-.1-3.59-.16-7.19a3.3,3.3,0,0,1,.15-1,7.92,7.92,0,0,0-.91-7C38,3.65,35.16,2.11,32,1.1A25.42,25.42,0,0,0,20.87.26a18.3,18.3,0,0,0-9,3.52c-2.61,2-4.19,4.58-3.77,8a33.17,33.17,0,0,1,.47,5.2c-.05,1.67,0,3.34,0,5a19,19,0,0,0,1.33,7.51c.18.43.13.62-.25.9a20.48,20.48,0,0,0-6.71,8A35.45,35.45,0,0,0,0,51.93a3.58,3.58,0,0,0,1.71,3.36A25.35,25.35,0,0,0,6.23,57.5a52,52,0,0,0,16.13,2.75A60.54,60.54,0,0,0,37.92,58.6a30.29,30.29,0,0,0,7.82-2.69A4.35,4.35,0,0,0,48.25,51.34Zm-2.57,3.43A19.9,19.9,0,0,1,40,57a60,60,0,0,1-20.1,2.11A47.46,47.46,0,0,1,5,56a15.35,15.35,0,0,1-2.72-1.5A2.76,2.76,0,0,1,1,52a34,34,0,0,1,3-13.5,20.05,20.05,0,0,1,6.92-7.81l.31-.22c-.49-1.76-1-3.42-1.39-5.11a16.44,16.44,0,0,1-.24-3.17c0-2.11,0-4.21,0-6.32a13.91,13.91,0,0,0-.31-3.27,7.19,7.19,0,0,1,2.6-7.48A16.78,16.78,0,0,1,21,1.25,24.08,24.08,0,0,1,32.6,2.37a12,12,0,0,1,6.51,4.89,6.9,6.9,0,0,1,.6,6.23,3.28,3.28,0,0,0-.11,1.16c0,2.5.12,5,.17,7.5a15.72,15.72,0,0,1-2.28,8.47c1.17,1.07,2.35,2,3.4,3.12A21.35,21.35,0,0,1,46,43.39a41.66,41.66,0,0,1,1.24,8.26A3.26,3.26,0,0,1,45.68,54.77Z"/><path class="cls-1" d="M44.15,49a27.45,27.45,0,0,0-2.61-9.39,18,18,0,0,0-7.36-7.47L24.12,50.36,14.1,32.2A17.51,17.51,0,0,0,6.53,40,31.24,31.24,0,0,0,3.89,51.82a.91.91,0,0,0,.39.7,16.73,16.73,0,0,0,2.29,1.12,47.66,47.66,0,0,0,14,2.76,55.79,55.79,0,0,0,17.78-1.81c1.84-.48,3.61-1.24,5.4-1.88a1,1,0,0,0,.66-1.18C44.28,50.71,44.25,49.87,44.15,49Zm-8.54.83a.47.47,0,0,1-.32.32c-1.7,0-3.41,0-5.16,0V47.86h5.5C35.63,48.56,35.64,49.22,35.61,49.88Z"/><path class="cls-1" d="M12.58,13.52a12.88,12.88,0,0,0-.11,4.35,16.22,16.22,0,0,1,.1,2.61,17.3,17.3,0,0,0,.49,6.37c2.16,7.56,9.62,10.51,16.29,7.5a12.91,12.91,0,0,0,7.46-13.18c-.07-.68,0-1.36,0-2,0-1.77-.1-3.53-.12-5.3a1.89,1.89,0,0,1,.16-.82,4.16,4.16,0,0,0,0-3.9,7,7,0,0,0-2.68-2.73C31.19,4.59,27.94,4,24.14,4c-.69.07-1.79.12-2.88.28a14.37,14.37,0,0,0-7.35,3c-1.75,1.48-2.64,3.71-1.4,5.9A.52.52,0,0,1,12.58,13.52Zm3.27,3.1c0-.11.11-.22.17-.32,6.22,2.46,10.08,2.48,17,.09,2.5,4.68,2.15,10.28-1.8,14.06-3.35,3.21-8.73,3.79-12.31,1.28a9.89,9.89,0,0,1-4-6.65A14.87,14.87,0,0,1,15.86,16.61Z"/><path class="cls-1" d="M26.26,38.33a3.11,3.11,0,0,0-4.05-.23,3,3,0,0,0-.65,4.08,1.66,1.66,0,0,1,.23,1.89,2.9,2.9,0,0,0-.19.66.9.9,0,0,0,.05.52c.79,1.46,1.6,2.91,2.47,4.49.67-1.22,1.22-2.36,1.9-3.42a2.55,2.55,0,0,0,.33-2.66,1,1,0,0,1,.2-1.21A3,3,0,0,0,26.26,38.33Z"/></g></g></svg>