<svg xmlns="http://www.w3.org/2000/svg" viewBox="0 0 52.3 55.85"><defs><style>.cls-1{fill:#8270aa;}</style></defs><title>船厂</title><g id="图层_2" data-name="图层 2"><g id="图层_1-2" data-name="图层 1"><path class="cls-1" d="M49,7.71V4.19a.66.66,0,0,0-.66-.66H44.54a.64.64,0,0,0-.39.14H38.36a.66.66,0,0,0-.66.66V7.68a.66.66,0,0,0,.66.66h5.52V44.29a3.72,3.72,0,0,1-2.37.76,4.21,4.21,0,0,1-3-1.27,8.9,8.9,0,0,0-1.86-1.24l1.52-2.46L28.42,35.4a4.35,4.35,0,0,0-3.71,0l-9.79,4.85,1.38,2.2a8.52,8.52,0,0,0-2,1.31,4.22,4.22,0,0,1-3,1.27,3.71,3.71,0,0,1-2.38-.76v-36h5.52A.66.66,0,0,0,15,7.64V4.28a.66.66,0,0,0-.66-.66H8.6a.64.64,0,0,0-.39-.14H4.38a.66.66,0,0,0-.66.66V42h0v2.38h0V46.9h0v2.38h0v2.38a.66.66,0,0,0,.66.66H8.21a.66.66,0,0,0,.61-.42,6.2,6.2,0,0,0,2.43.46,6.51,6.51,0,0,0,4.53-1.81,4.24,4.24,0,0,1,6.06,0,6.58,6.58,0,0,0,9.07,0,4.25,4.25,0,0,1,6.07,0,6.53,6.53,0,0,0,4.53,1.81,6.22,6.22,0,0,0,2.41-.45.65.65,0,0,0,.61.45h3.83a.66.66,0,0,0,.66-.66V49.28h.05V46.9H49V44.34h.05V42H49ZM43.88,49.23a3.72,3.72,0,0,1-2.37.76,4.21,4.21,0,0,1-3-1.27,6.58,6.58,0,0,0-9.07,0,4.24,4.24,0,0,1-6.06,0,6.58,6.58,0,0,0-9.07,0,4.22,4.22,0,0,1-3,1.27,3.71,3.71,0,0,1-2.38-.76V47a6.23,6.23,0,0,0,2.38.44,6.51,6.51,0,0,0,4.53-1.81,5.29,5.29,0,0,1,1.8-1.1l.19.3a.93.93,0,0,0,.79.44h2.82l.46.37a6.58,6.58,0,0,0,9.07,0l.46-.37h3a.94.94,0,0,0,.79-.44l.14-.23a5.73,5.73,0,0,1,1.62,1,6.53,6.53,0,0,0,4.53,1.81A6.25,6.25,0,0,0,43.88,47Z"/><path class="cls-1" d="M12,13.53v5.59a.93.93,0,0,0,.94.94h1l.88,8.16-1.29.7a4.36,4.36,0,0,0-1.76,6.39l2.11,3.36,10-4.94a6.2,6.2,0,0,1,5.33,0l9.9,4.75,2-3.23a4.35,4.35,0,0,0-1.61-6.37L38,28.11,39,20.06h.1a.94.94,0,0,0,.94-.94v-5.6a.93.93,0,0,0-.94-.94H32.56V6.06a.93.93,0,0,0-.94-.94H20.43a.93.93,0,0,0-.94.94v6.53H13A.94.94,0,0,0,12,13.53Zm25.08,6.53-.84,7.13-7.19-3.79a6.84,6.84,0,0,0-5.36,0l-7.07,3.83-.78-7.19Z"/><path class="cls-1" d="M47.86.06c-3.15,0-6.3.07-9.45.1A4.26,4.26,0,0,0,35.6,1a17.6,17.6,0,0,0-1.49,1.56,5.18,5.18,0,0,0-3.39-1c-3.37,0-6.74,0-10.12,0a21.87,21.87,0,0,0-2.82.42,4.61,4.61,0,0,0-4.23-2c-3,0-6-.07-9-.09A4.21,4.21,0,0,0,0,4.51Q0,28.05.1,51.6a4.06,4.06,0,0,0,4.11,4.17c1.46,0,2.93,0,4.39,0,1.27,0,2.55,0,3.81-.06a9.21,9.21,0,0,0,5.33-2.43,1.11,1.11,0,0,1,1.76,0,8.9,8.9,0,0,0,2,1.4,9.86,9.86,0,0,0,11.4-1.5,1,1,0,0,1,1.48,0A9.18,9.18,0,0,0,40,55.73c2.87.12,5.75.15,8.62,0a4,4,0,0,0,3.62-4q0-9.7.06-19.4,0-13.89,0-27.78A4.21,4.21,0,0,0,47.86.06Zm3.42,9.19q0,14.43,0,28.85c0,4.53,0,9.06-.05,13.59a3,3,0,0,1-2.59,3.06c-2.92.1-5.86.08-8.78,0a8.08,8.08,0,0,1-4.72-2.2c-1.22-1-1.65-1-2.87,0a8.77,8.77,0,0,1-8.64,1.94,15.15,15.15,0,0,1-3.71-2.09c-1.09-.72-1.57-.81-2.56,0a9.58,9.58,0,0,1-7,2.44c-1.9-.09-3.82-.09-5.72,0A3.39,3.39,0,0,1,1,51.27C1.07,35.71,1,20.15,1,4.6A3.26,3.26,0,0,1,4.59,1c3,0,6,.11,9,.09a3.61,3.61,0,0,1,4,2.81c1.17-1.25,2.56-1.31,4-1.3,3.29,0,6.58,0,9.87,0a3.41,3.41,0,0,1,2.74,1.31c.15.19.33.36.48.53.08,0,.15-.06.16-.09.67-2.49,1.49-3.15,4.08-3.2q4.52-.08,9-.11A3.21,3.21,0,0,1,51.3,4.44C51.33,6,51.27,7.65,51.27,9.25Z"/></g></g></svg>