<svg xmlns="http://www.w3.org/2000/svg" viewBox="0 0 48.19 56.97"><defs><style>.cls-1{fill:#5699f3;}</style></defs><title>船舶证书</title><g id="图层_2" data-name="图层 2"><g id="图层_1-2" data-name="图层 1"><path class="cls-1" d="M48.14,28.54h0c0-6.55,0-13.1,0-19.65,0-5.09-3.47-8.76-8.55-8.81q-15.49-.17-31,0C3.54.16,0,3.85,0,8.91Q0,28.44,0,48c0,5.39,3.71,8.95,9.07,8.95,9.91,0,19.82-.15,29.72.06a9.05,9.05,0,0,0,9.35-9.4C48,41.23,48.14,34.88,48.14,28.54Zm-1-.09q0,9.57,0,19.14c0,5.24-3.07,8.3-8.28,8.3H9c-4.63,0-7.93-3.12-8-7.74C1,35,1,21.88,1,8.74A7.74,7.74,0,0,1,9.21,1c5.41.1,10.83,0,16.24,0,4.49,0,9,0,13.47,0,5.07,0,8.18,3.08,8.2,8.14C47.16,15.61,47.13,22,47.13,28.46Z"/><path class="cls-1" d="M43.9,9.17c0-3.13-1.71-4.89-4.66-4.9q-15.17,0-30.35,0A4.34,4.34,0,0,0,4.28,8.84q0,19.64,0,39.29a4.29,4.29,0,0,0,4.6,4.54q15.24,0,30.47,0a4.84,4.84,0,0,0,1.83-.3c2-.86,2.74-2.54,2.73-4.65,0-6.42,0-12.84,0-19.27S43.94,15.59,43.9,9.17ZM28,38.39c.4,2.95.76,5.9,1.14,8.85a3.8,3.8,0,0,1,0,.47l-.3.14L24,42.79l-4.78,5.12L19,47.77l1-8.53a10,10,0,0,1,.18-1.37,1.73,1.73,0,0,0-.71-1.92,6.81,6.81,0,0,1-.39-9.87,6.94,6.94,0,0,1,9.83-.2,6.82,6.82,0,0,1-.06,9.89A2.57,2.57,0,0,0,28,38.39Zm8-17.47h-12c-3.9,0-7.81,0-11.71,0-1.41,0-2.17-.94-1.73-2.06.36-.92,1.14-1,2-1H36a1.46,1.46,0,0,1,1.65,1.51C37.68,20.4,37,20.91,36,20.91Zm1.62-8.76c-.23.94-.91,1.19-1.81,1.19-3.95,0-7.89,0-11.84,0H12.54c-1.37,0-2-.5-2-1.49s.68-1.53,2-1.53H35.59C37.13,10.32,37.92,11,37.65,12.15Z"/></g></g></svg>