<svg xmlns="http://www.w3.org/2000/svg" viewBox="0 0 53.7 55.21"><defs><style>.cls-1{fill:#4b6f9b;}.cls-2{fill:#1abeff;}</style></defs><title>规格书</title><g id="图层_2" data-name="图层 2"><g id="图层_1-2" data-name="图层 1"><path class="cls-1" d="M33.88,2.49H31.1a3.71,3.71,0,0,0-7,0H21.32V7.54H33.88ZM27.6,5a1.26,1.26,0,1,1,1.25-1.26A1.26,1.26,0,0,1,27.6,5Z"/><path class="cls-1" d="M16.88,7h3.3V3.21H15.62a2.5,2.5,0,0,0-2.47,2.53v26.6h3.73Z"/><path class="cls-1" d="M42,5.74A2.5,2.5,0,0,0,39.5,3.21H34.93V7h3.3V32.34H42Z"/><path class="cls-1" d="M18.4,14.32a2.47,2.47,0,0,0,2.39,2.37,2.52,2.52,0,0,0,2.47-2.47,2.47,2.47,0,0,0-2.49-2.43A2.43,2.43,0,0,0,18.4,14.32Z"/><path class="cls-1" d="M20.76,18.94a2.43,2.43,0,0,0-2.37,2.53,2.47,2.47,0,0,0,2.39,2.36,2.52,2.52,0,0,0,2.47-2.47A2.47,2.47,0,0,0,20.76,18.94Z"/><path class="cls-1" d="M23.25,29.31a2.36,2.36,0,0,0-.49-1.44v0a2.43,2.43,0,0,0-4.38,1.55,2.34,2.34,0,0,0,.22.92,2.53,2.53,0,0,0,.76,1,2.27,2.27,0,0,0,2.78.09v0A2.53,2.53,0,0,0,23.25,29.31Z"/><path class="cls-1" d="M36.05,13.69,36,13.56a1.44,1.44,0,0,0-.24-.33,1.41,1.41,0,0,0-1-.42H26.54a1.42,1.42,0,0,0-1.41,1.3s0,.08,0,.12a1.43,1.43,0,0,0,.11.55l.06.12a1.44,1.44,0,0,0,.24.33,1.41,1.41,0,0,0,1,.42h8.21a1.42,1.42,0,0,0,1.41-1.3s0-.08,0-.12A1.43,1.43,0,0,0,36.05,13.69Z"/><path class="cls-1" d="M36.1,21l0-.13L36,20.71l-.1-.15,0,0-.12-.14a1.41,1.41,0,0,0-1-.42H26.21l-.08,0-.06,0-.07,0-.06,0-.06,0-.06,0-.05,0-.06,0,0,0-.06,0,0,0-.06.06,0,0-.05.07,0,0,0,.07,0,0,0,.08,0,0,0,.09v0l0,.1v0l0,.11h0s0,.08,0,.12,0,.08,0,.12a1.43,1.43,0,0,0,.11.55l.06.12.1.15,0,0,.12.14a1.44,1.44,0,0,0,.21.17,1.41,1.41,0,0,0,.37.18,1.39,1.39,0,0,0,.42.06h8.21a1.42,1.42,0,0,0,1.41-1.3s0-.08,0-.12A1.43,1.43,0,0,0,36.1,21Z"/><path class="cls-1" d="M36.05,28.78,36,28.65l-.1-.15,0,0-.12-.14a1.41,1.41,0,0,0-1-.42H26.21l-.08,0-.06,0L26,28l-.06,0-.06,0-.06,0-.05,0-.06,0,0,0-.06,0,0,0-.06.06,0,0-.05.07,0,0,0,.07,0,0,0,.08,0,0,0,.09v0l0,.1v0l0,.11h0s0,.08,0,.12,0,.08,0,.12h0a1.43,1.43,0,0,0,.11.55l.06.12.1.15,0,0,.12.14a1.44,1.44,0,0,0,.21.17,1.41,1.41,0,0,0,.37.18,1.39,1.39,0,0,0,.42.06h8.21a1.42,1.42,0,0,0,1.41-1.3s0-.08,0-.12h0a1.43,1.43,0,0,0-.06-.42Z"/><path class="cls-1" d="M46.83,22l.3-1.44a.31.31,0,0,0-.22-.4l-2.71-.63v2.19l2.26.52A.29.29,0,0,0,46.83,22Z"/><path class="cls-1" d="M45.41,28.37l.67-3.45a.45.45,0,0,0-.22-.4l-1.66-.39v4.28l.84.19A.41.41,0,0,0,45.41,28.37Z"/><path class="cls-1" d="M10.85,18.16,7.3,19.26a.5.5,0,0,0-.17.4l.39,2.48a.31.31,0,0,0,.28.24l3.06-.94Z"/><path class="cls-1" d="M8.12,25.91l.39,2.48a.27.27,0,0,0,.28.24L10.85,28V24.74l-2.56.77C8.18,25.51,8.07,25.75,8.12,25.91Z"/><path class="cls-1" d="M50.55,32.49h0l3.05-15.76a3.41,3.41,0,0,0-2.39-4l-7-1.65v4l5.52,1.4L47,32.34h3.59Z"/><path class="cls-1" d="M4.47,32.34H7.78L4,12.21l6.85-1.64V7.46a6.17,6.17,0,0,1,0-.76L2.44,8.6A3.33,3.33,0,0,0,.05,12.45L4.13,32.68l.37-.16Z"/><polygon class="cls-2" points="50.55 32.68 50.58 32.53 46.99 32.53 46.98 32.58 50.55 32.68"/><path class="cls-2" d="M7.78,34.44H4.47l0,.16-.37.14a4.44,4.44,0,0,0-2.71,4V50.85A4.51,4.51,0,0,0,6,55.21H48.34a4.52,4.52,0,0,0,4.59-4.43V38.71a4.33,4.33,0,0,0-2.43-3.85l.06-.29L47,34.48v0H33.58a13.36,13.36,0,0,0-.33,1.68c-.23,1.67-2.18,3.07-2.18,3.07a6.47,6.47,0,0,1-2.55,1.08,6.81,6.81,0,0,1-2.52,0h-.27l.62,0a9.35,9.35,0,0,1-2.6-.85,6.23,6.23,0,0,1-1.37-1.16l0,0a5.94,5.94,0,0,1-1-1.51,5.8,5.8,0,0,1-.28-.8l0-.19a5.86,5.86,0,0,1-.16-1.26H7.78Z"/><path class="cls-2" d="M13.15,34.42"/></g></g></svg>