<svg xmlns="http://www.w3.org/2000/svg" viewBox="0 0 53.01 56.18"><defs><style>.cls-1{fill:#4b6f9b;}.cls-2{fill:#1abeff;}</style></defs><title>结算</title><g id="图层_2" data-name="图层 2"><g id="图层_1-2" data-name="图层 1"><path class="cls-1" d="M35.85,4.27H31a6.43,6.43,0,0,0-12.11,0h-4.8v8.66H35.86ZM25,8.6a2.17,2.17,0,1,1,2.17-2.17A2.17,2.17,0,0,1,25,8.6Z"/><path class="cls-1" d="M45.77,23l.17.11.2.13.71.51.09.07a18.82,18.82,0,0,1,2.76,2.6V9.84a4.3,4.3,0,0,0-4.27-4.33H37.8v4.81H45V22.52l.26.15Z"/><path class="cls-1" d="M19.79,49,4.74,48.9V10.32h7.43V5.51H4.27A4.3,4.3,0,0,0,0,9.84V49.38a4.3,4.3,0,0,0,4.27,4.33H23.92c-.39-.32-.77-.65-1.12-1a11,11,0,0,1-1.82-2"/><path class="cls-2" d="M35.86,21.88A17.15,17.15,0,1,0,53,39,17.15,17.15,0,0,0,35.86,21.88Zm6.92,20.92v0h0a1.34,1.34,0,0,1,1,.48,1.82,1.82,0,0,1,.41,1,1.77,1.77,0,0,1-.41,1,1.37,1.37,0,0,1-1,.47l-4.63,0v2.56a2,2,0,0,1-2.24,2,2.5,2.5,0,0,1-1.66-.5,2,2,0,0,1-.64-1.54V45.9H28.95a1.26,1.26,0,0,1-1-.55,2.28,2.28,0,0,1-.42-1.1,1.76,1.76,0,0,1,.42-1,1.4,1.4,0,0,1,1-.43H33.6V41.32l-4.65,0a1.38,1.38,0,0,1-1-.46,1.86,1.86,0,0,1-.42-1,1.76,1.76,0,0,1,.42-1,1.4,1.4,0,0,1,1-.43h3.47l-3.23-5.69a3.89,3.89,0,0,1-.46-.73,1.9,1.9,0,0,1-.19-1,2.31,2.31,0,0,1,.48-1.1,2.09,2.09,0,0,1,1.35-.55,1.94,1.94,0,0,1,1,.4,3.38,3.38,0,0,1,.74.75l3.67,6.7,4-6.75a2.88,2.88,0,0,1,.74-.72,2.36,2.36,0,0,1,1-.39,5.68,5.68,0,0,1,.66.09,1.53,1.53,0,0,1,.53.24,1.3,1.3,0,0,1,.39.48,2.87,2.87,0,0,1,.23.82A2.1,2.1,0,0,1,43,32.28l-3.74,6.08h3.54a1.46,1.46,0,0,1,1,.43,1.59,1.59,0,0,1,.41,1,1.81,1.81,0,0,1-.42,1.06,1.4,1.4,0,0,1-1,.48l-4.6,0v1.47Z"/></g></g></svg>