<svg xmlns="http://www.w3.org/2000/svg" viewBox="0 0 52.87 52.87"><defs><style>.cls-1{fill:#417abb;}</style></defs><title>坞修列表</title><g id="图层_2" data-name="图层 2"><g id="图层_1-2" data-name="图层 1"><path class="cls-1" d="M5.61,27H8.42l4.18,5a2.91,2.91,0,0,0,4.91-.71l3.41-7.91,2.2,6.4a2.85,2.85,0,0,0,2.65,1.92,2.81,2.81,0,0,0,2.77-1.77l.84-2.78.25.54a2.94,2.94,0,0,0,2.74,1.72,3,3,0,0,0,2.69-1.8l.5-1.15h7.2a2.29,2.29,0,0,0,.87-.17,19.57,19.57,0,0,1-38.84.57,2.29,2.29,0,0,0,.8.15Zm38-5a2.26,2.26,0,0,0-.87-.17H34.46a2.91,2.91,0,0,0-2.07.85l-.68-1.47A2.86,2.86,0,0,0,29.1,19.5a2.81,2.81,0,0,0-2.74,1.77l-.61,2-1.91-5.55a2.88,2.88,0,0,0-2.63-1.95,2.94,2.94,0,0,0-2.77,1.75L14.38,27l-2.94-3.51a2.89,2.89,0,0,0-2.22-1H5.61a2.25,2.25,0,0,0-.93.2,19.57,19.57,0,0,1,39-.58Zm-.82,17.53a24.22,24.22,0,1,0-3.25,3.25l9.37,9.37a2.3,2.3,0,1,0,3.25-3.25l-9.37-9.37Z"/></g></g></svg>