<svg xmlns="http://www.w3.org/2000/svg" viewBox="0 0 51.31 51.39"><defs><style>.cls-1{fill:#417abb;}</style></defs><title>项目1</title><g id="图层_2" data-name="图层 2"><g id="图层_1-2" data-name="图层 1"><path class="cls-1" d="M2.69,19.54,23,30a5.93,5.93,0,0,0,2.69.65v-.27l0,.27a5.9,5.9,0,0,0,2.7-.65l20.26-10.5a4.78,4.78,0,0,0,2.69-4.2,4.77,4.77,0,0,0-2.69-4.19L28.36.65A6,6,0,0,0,23,.65L2.69,11.15A4.77,4.77,0,0,0,0,15.34,4.78,4.78,0,0,0,2.69,19.54Zm23-15.19h0a1.54,1.54,0,0,1,.69.16L46.63,15c.24.12.33.27.33.32s-.11.21-.33.33L26.37,26.17a1.6,1.6,0,0,1-1.41,0L4.69,15.67c-.24-.12-.33-.27-.33-.33s.1-.2.34-.33L25,4.52A1.54,1.54,0,0,1,25.64,4.35Z"/><path class="cls-1" d="M49,35.43a2.17,2.17,0,0,0-.91.2L26.48,46.84a1.88,1.88,0,0,1-1.65,0L3.18,35.63a2.18,2.18,0,0,0-2.89.91,2.18,2.18,0,0,0,.88,3L22.84,50.71a6.19,6.19,0,0,0,2.82.68h0a6.18,6.18,0,0,0,2.81-.68L50.15,39.48A2.18,2.18,0,0,0,49,35.43Z"/><path class="cls-1" d="M49.14,24.83a2.18,2.18,0,0,0-1,.24L26.48,36.29a1.78,1.78,0,0,1-.82.19,1.81,1.81,0,0,1-.83-.19L3.18,25.07a2.18,2.18,0,1,0-2,3.86L22.84,40.16a6.14,6.14,0,0,0,2.82.68h0a6.21,6.21,0,0,0,2.81-.68L50.14,28.94a2.18,2.18,0,0,0-1-4.11Z"/></g></g></svg>