<svg xmlns="http://www.w3.org/2000/svg" viewBox="0 0 50.72 52.15"><defs><style>.cls-1{fill:#f8835e;}</style></defs><title>开始时间</title><g id="图层_2" data-name="图层 2"><g id="图层_1-2" data-name="图层 1"><path class="cls-1" d="M48.64,21.75c0-3.59,0-7.3-.14-10.94C48.34,7,46,4.48,42.13,3.94c-.91-.13-1.84-.17-2.74-.21l-.82,0V2.35a2.3,2.3,0,1,0-4.6,0V3.67H14.7V2.35a2.3,2.3,0,1,0-4.6,0V3.79H8.69C2.68,3.84,0,6.6,0,12.72v6.81Q0,30.63,0,41.72C0,47.12,2.81,50,8.1,50H26.45l-.52-.5a16.11,16.11,0,0,1-2.55-3.22l-.08-.14H9A5,5,0,0,1,4,41V21.87H35.38c.45,0,.9-.07,1.35-.07s.9,0,1.38.07h6.51V24l.14.08a15.91,15.91,0,0,1,3.39,2.78l.5.54V25.5C48.64,24.25,48.64,23,48.64,21.75ZM4.1,10.73A3,3,0,0,1,7.08,8a10.9,10.9,0,0,1,1.2-.06h.39l1.44,0V9.11A2.4,2.4,0,0,0,11,11a2.24,2.24,0,0,0,1.38.48A2.33,2.33,0,0,0,14.7,9.11V8H34V9.11a2.29,2.29,0,1,0,4.59,0V7.95l1.41,0h.35A11.32,11.32,0,0,1,41.6,8a3,3,0,0,1,3,3.2c.07,1.52.05,3,0,4.64,0,.61,0,1.24,0,1.87H4.06c0-.65,0-1.29,0-1.93C4,14,4,12.38,4.1,10.73Z"/><path class="cls-1" d="M42.14,36.6q-3.31-2.11-6.65-4.17a1.81,1.81,0,0,0-.93-.31c-.25,0-1.06.11-1.09,1.5,0,1,0,1.93,0,2.9v2.59c0,1,0,2,0,3s.58,1.46,1.09,1.46a1.71,1.71,0,0,0,.88-.29c2.29-1.41,4.55-2.83,6.74-4.23A1.54,1.54,0,0,0,43,37.86,1.6,1.6,0,0,0,42.14,36.6Z"/><path class="cls-1" d="M36.73,23.56a14.3,14.3,0,1,0,14,14.29A14.16,14.16,0,0,0,36.73,23.56Zm0,25A10.71,10.71,0,1,1,47.21,37.85,10.6,10.6,0,0,1,36.73,48.56Z"/></g></g></svg>