<svg xmlns="http://www.w3.org/2000/svg" viewBox="0 0 57.26 44.01"><defs><style>.cls-1{fill:none;}.cls-2{fill:#417abb;}</style></defs><title>快捷操作</title><g id="图层_2" data-name="图层 2"><g id="图层_1-2" data-name="图层 1"><path class="cls-1" d="M52.86,3.63a2.84,2.84,0,0,0-1.33.07L5.18,15.53C3.27,16,3,17.34,4.65,18.47L9.42,21.8a5.78,5.78,0,0,0,2,.84,6.85,6.85,0,0,0,4.23-.28L42.74,9.75a4.21,4.21,0,0,1,1.38-.5c.16,0-.21.37-1.12,1L20.36,25.29a2.19,2.19,0,0,0-.7,3.37l1,.83.27.18c1.62,1.11,4.26,3,5.86,4.1L32,37.54c1.6,1.14,2.92,2.08,2.91,2.09s0,0,0,.05.78-1.41,1.72-3.13L53.29,6C54,4.71,53.75,3.84,52.86,3.63Z"/><path class="cls-1" d="M18.63,32.5l-.21-.18-.12-.08a6.93,6.93,0,0,1-1.22-1.07l-2.23-1.92a2.27,2.27,0,0,0-.77-.39c-1-.25-1.44,1-1.18,2.56,0,0,1.56,8,1.68,9v0c.28.07,4.85-4.53,4.85-4.53C20.88,34.52,20.35,34,18.63,32.5Z"/><path class="cls-2" d="M56.86,2.73A4.6,4.6,0,0,0,53.68.15a6.33,6.33,0,0,0-3,.09L4.29,12.07c-3.3.84-4,3.11-4.21,4S-.19,19.45,2.6,21.4l4.78,3.34a9.26,9.26,0,0,0,3.18,1.39c.19,0,.38.07.57.1-.09.07-.2.13-.29.21C9.52,27.66,9,29.64,9.38,32l0,.11c.75,3.82,1.56,8.13,1.64,8.72a3.65,3.65,0,0,0,2.74,3c2.22.53,3.14-.38,8.18-5.45a6.18,6.18,0,0,0,1.66-2.49l1.06.75L30,40.46l2.47,1.77a3.77,3.77,0,0,0,.47.39,3.61,3.61,0,0,0,1.23.55c2.66.63,3.84-1.52,4.47-2.67l1.21-2.23L56.44,7.66A5.44,5.44,0,0,0,56.86,2.73ZM19.46,35.87s-4.57,4.59-4.85,4.53v0c-.12-1-1.68-9-1.68-9-.26-1.59.14-2.81,1.18-2.56a2.27,2.27,0,0,1,.77.39l2.23,1.92a6.93,6.93,0,0,0,1.22,1.07l.12.08.21.18C20.35,34,20.88,34.52,19.46,35.87ZM53.29,6,36.68,36.56C35.74,38.29,35,39.69,35,39.69s0,0,0-.05-1.31-1-2.91-2.09l-5.28-3.76c-1.6-1.14-4.24-3-5.86-4.1l-.27-.18-1-.83a2.19,2.19,0,0,1,.7-3.37L43,10.23c.91-.6,1.28-.94,1.12-1a4.21,4.21,0,0,0-1.38.5L15.61,22.36a6.85,6.85,0,0,1-4.23.28,5.78,5.78,0,0,1-2-.84L4.65,18.47C3,17.34,3.27,16,5.18,15.53L51.53,3.7a2.84,2.84,0,0,1,1.33-.07C53.75,3.84,54,4.71,53.29,6Z"/></g></g></svg>