<svg xmlns="http://www.w3.org/2000/svg" viewBox="0 0 50.79 52.16"><defs><style>.cls-1{fill:#f8835e;}</style></defs><title>结束时间</title><g id="图层_2" data-name="图层 2"><g id="图层_1-2" data-name="图层 1"><path class="cls-1" d="M48.64,21.75c0-3.59,0-7.3-.14-10.94C48.34,7,46,4.48,42.13,3.94c-.91-.13-1.84-.17-2.74-.21l-.82,0V2.35a2.3,2.3,0,1,0-4.6,0V3.67H14.7V2.35a2.3,2.3,0,1,0-4.6,0V3.79H8.69C2.68,3.84,0,6.6,0,12.72v6.81Q0,30.63,0,41.72C0,47.12,2.81,50,8.1,50H26.5l-.52-.5a16.13,16.13,0,0,1-2.55-3.22l-.08-.14H9A5,5,0,0,1,4,41V21.87H35.92c.29,0,.59,0,.89,0s.59,0,.89,0h6.93V24l.14.08a15.84,15.84,0,0,1,3.39,2.75l.49.53V25.5C48.64,24.25,48.64,23,48.64,21.75ZM4.1,10.73A3,3,0,0,1,7.08,8a11,11,0,0,1,1.2-.06l1,0,.81,0V9.11A2.4,2.4,0,0,0,11,11a2.24,2.24,0,0,0,1.38.48,2.33,2.33,0,0,0,2.3-2.35V8H34V9.11a2.3,2.3,0,1,0,4.6,0V7.94l.7,0,1,0A11.08,11.08,0,0,1,41.59,8a3,3,0,0,1,3,3.2c.07,1.52.05,3,0,4.64,0,.61,0,1.24,0,1.87H4.06c0-.65,0-1.29,0-1.93C4,14,4,12.38,4.1,10.73Z"/><path class="cls-1" d="M34.72,32.22v0h0l0,0a1.34,1.34,0,0,0-1.15-.59h-.11a1.33,1.33,0,0,0-1.15.65h0v0h0v0a1.57,1.57,0,0,0-.31.9v9.25a1.57,1.57,0,0,0,.31.9h0v0h0v0a1.3,1.3,0,0,0,1.15.64h.28a1.34,1.34,0,0,0,1-.56h0v0h0v0a1.59,1.59,0,0,0,.35-1V33.19a1.59,1.59,0,0,0-.35-1Z"/><path class="cls-1" d="M36.8,23.57a14.3,14.3,0,1,0,14,14.29A14.16,14.16,0,0,0,36.8,23.57Zm0,25A10.71,10.71,0,1,1,47.28,37.87,10.6,10.6,0,0,1,36.8,48.57Z"/><path class="cls-1" d="M41.37,32.22v0h0l0,0a1.34,1.34,0,0,0-1.15-.59h-.11a1.33,1.33,0,0,0-1.15.65h0v0h0v0a1.57,1.57,0,0,0-.31.9v9.25a1.57,1.57,0,0,0,.31.9h0v0h0v0a1.3,1.3,0,0,0,1.15.64h.28a1.34,1.34,0,0,0,1-.56h0v0h0v0a1.59,1.59,0,0,0,.35-1V33.19a1.59,1.59,0,0,0-.35-1Z"/></g></g></svg>