<svg xmlns="http://www.w3.org/2000/svg" viewBox="0 0 53.94 53.92"><defs><style>.cls-1{fill:#a6c8f0;}</style></defs><title>修理中</title><g id="图层_2" data-name="图层 2"><g id="图层_1-2" data-name="图层 1"><path class="cls-1" d="M18.14,25.59A2.17,2.17,0,0,1,16.6,25l-3.87-3.87L9.58,24.23a2.18,2.18,0,0,1-3.08,0L.64,18.37a2.18,2.18,0,0,1,0-3.08l9.65-9.62a.59.59,0,0,1,.13-.09l0,0,0,0a.51.51,0,0,1,.09-.12A18.39,18.39,0,0,1,30.51,1.35h.07l.13,0a1.4,1.4,0,0,1,.32.2l.08.06.05,0a1,1,0,0,1,.16.12,2,2,0,0,1,.41.52l.08.13a2.13,2.13,0,0,1,.21.73v0h0V3.3a2.13,2.13,0,0,1-.1.79v0h0l0,0a.44.44,0,0,1,0,.12,2,2,0,0,1-.34.51l-.06.08a2.12,2.12,0,0,1-.58.45l-.09.06a2.16,2.16,0,0,1-.68.19L30,5.6a10.56,10.56,0,0,0-6.21,2.51l-.24.2c-.19.16-.36.3-.52.46a14.89,14.89,0,0,0-2.34,3l-.2.37,0,.06,0,.1a1,1,0,0,0,0,.82v0l4,4a2.18,2.18,0,1,1-3.08,3.08L17,16a.65.65,0,0,1-.11-.16,2.6,2.6,0,0,1-.4-.55,5.38,5.38,0,0,1-.19-4.55l0-.11h0l.11-.25c.13-.25.27-.51.42-.76a19.25,19.25,0,0,1,3-3.87.81.81,0,0,1,.1-.14c.22-.22.47-.45.73-.68l-.12-.23a14,14,0,0,0-6.95,3.77.54.54,0,0,1-.13.09l0,0,0,0a.52.52,0,0,1-.1.13l-8.1,8.07L8,19.61l3.15-3.15a2.18,2.18,0,0,1,3.08,0l5.41,5.41a2.18,2.18,0,0,1-1.54,3.72Z"/><path class="cls-1" d="M13.7,53.92a11.93,11.93,0,0,1-5-1.12A2.18,2.18,0,0,1,8,49.28l5.06-5.06-1.59-1.59-5,5A2.18,2.18,0,0,1,5,48.3a2.09,2.09,0,0,1-.4,0A2.16,2.16,0,0,1,3,47,11.73,11.73,0,0,1,16.94,31L17,31,31,17l0-.08a11.9,11.9,0,0,1,2.94-11.6,11.61,11.61,0,0,1,8.26-3.42,11.9,11.9,0,0,1,4.86,1,2.18,2.18,0,0,1,.64,3.52l-5.1,5.1,1.59,1.59L49.31,8a2.19,2.19,0,0,1,1.54-.64,2.15,2.15,0,0,1,.38,0,2.18,2.18,0,0,1,1.6,1.22,11.76,11.76,0,0,1-2.29,13.29,11.6,11.6,0,0,1-8.25,3.42,11.79,11.79,0,0,1-3.5-.53l-.08,0-13.9,13.9,0,.08A11.86,11.86,0,0,1,21.95,50.5,11.59,11.59,0,0,1,13.7,53.92ZM11.51,37.39a2.16,2.16,0,0,1,1.54.64l4.67,4.66a2.18,2.18,0,0,1,0,3.08l-3.8,3.8.36,0a7.28,7.28,0,0,0,4.59-2.12,7.39,7.39,0,0,0,1.43-8.36,2.18,2.18,0,0,1,.43-2.47l15.9-15.9a2.18,2.18,0,0,1,2.47-.43,7.32,7.32,0,0,0,10.47-6l0-.37-3.88,3.88a2.18,2.18,0,0,1-3.08,0L38,13.1A2.18,2.18,0,0,1,38,10l3.77-3.77-.38,0A7.24,7.24,0,0,0,37,8.39a7.32,7.32,0,0,0-1.49,8.25,2.19,2.19,0,0,1-.45,2.43l-16,16a2.19,2.19,0,0,1-2.43.45,7.37,7.37,0,0,0-3-.64A7.45,7.45,0,0,0,8.42,37a7.24,7.24,0,0,0-2.11,4.37l0,.38L10,38A2.16,2.16,0,0,1,11.51,37.39Z"/><path class="cls-1" d="M45.11,52.57a2.16,2.16,0,0,1-1.54-.64L30.82,39.18A2.18,2.18,0,1,1,33.9,36.1L45.11,47.31l1.61-1.61L35.54,34.52a2.18,2.18,0,1,1,3.08-3.08L51.34,44.16a2.17,2.17,0,0,1,0,3.08l-4.69,4.69A2.17,2.17,0,0,1,45.11,52.57Z"/></g></g></svg>