<svg xmlns="http://www.w3.org/2000/svg" viewBox="0 0 45.86 49.55"><defs><style>.cls-1{fill:#f8835e;}</style></defs><title>实际花费1</title><g id="图层_2" data-name="图层 2"><g id="图层_1-2" data-name="图层 1"><path class="cls-1" d="M8.48,32a2.9,2.9,0,0,1-2.92-2.88V24.77A2.9,2.9,0,0,1,8.48,21.9h4.45a2.9,2.9,0,0,1,2.92,2.88v4.38A2.9,2.9,0,0,1,12.93,32Zm.7-3.56h3v-3h-3Z"/><path class="cls-1" d="M20.71,32a2.9,2.9,0,0,1-2.92-2.88V24.77a2.9,2.9,0,0,1,2.92-2.88h4.45a2.9,2.9,0,0,1,2.92,2.88v4.38A2.9,2.9,0,0,1,25.15,32Zm.7-3.56h3v-3h-3Z"/><path class="cls-1" d="M20.71,44.07a2.9,2.9,0,0,1-2.92-2.88V36.82a2.9,2.9,0,0,1,2.92-2.88h4.45a2.9,2.9,0,0,1,2.92,2.88V41.2a2.9,2.9,0,0,1-2.92,2.88Zm.7-3.56h3v-3h-3Z"/><path class="cls-1" d="M5.15,49.55A5.11,5.11,0,0,1,0,44.48V5.07A5.11,5.11,0,0,1,5.15,0H40.71a5.11,5.11,0,0,1,5.15,5.07V44.48a5.11,5.11,0,0,1-5.15,5.07Zm0-46a1.51,1.51,0,0,0-1.52,1.5V44.48A1.51,1.51,0,0,0,5.15,46H40.71a1.52,1.52,0,0,0,1.52-1.5V5.07a1.52,1.52,0,0,0-1.52-1.5Z"/><path class="cls-1" d="M8.48,18.89A2.9,2.9,0,0,1,5.56,16V9.45A2.9,2.9,0,0,1,8.48,6.57h28.9A2.9,2.9,0,0,1,40.3,9.45V16a2.9,2.9,0,0,1-2.92,2.88Zm.7-3.56h27.5v-5.2H9.18Z"/><path class="cls-1" d="M8.48,44.07A2.9,2.9,0,0,1,5.56,41.2V36.82a2.9,2.9,0,0,1,2.92-2.88h4.45a2.9,2.9,0,0,1,2.92,2.88V41.2a2.9,2.9,0,0,1-2.92,2.88Zm.7-3.56h3v-3h-3Z"/><path class="cls-1" d="M32.93,44.07A2.9,2.9,0,0,1,30,41.2V24.77a2.9,2.9,0,0,1,2.92-2.88h4.45a2.9,2.9,0,0,1,2.92,2.88V41.2a2.9,2.9,0,0,1-2.92,2.88Zm.7-3.56h3v-15h-3Z"/></g></g></svg>