<svg xmlns="http://www.w3.org/2000/svg" viewBox="0 0 54.17 52.27"><defs><style>.cls-1{fill:#a6c8f0;}</style></defs><title>总预算</title><g id="图层_2" data-name="图层 2"><g id="图层_1-2" data-name="图层 1"><path class="cls-1" d="M20.56,52.27a23.91,23.91,0,0,1-9-1.58c-2.89-1.22-4.49-3-4.49-5.07a3.87,3.87,0,0,1,0-.39v-.11l-.11,0a14.91,14.91,0,0,1-4.07-1.66C.62,42,.14,40.34.14,39.22a4.19,4.19,0,0,1,.93-2.58l.06-.08-.06-.08a4.12,4.12,0,0,1-.93-2.57,4.26,4.26,0,0,1,1.14-2.83L1.36,31l-.08-.09A4.32,4.32,0,0,1,.14,28.06a4.23,4.23,0,0,1,.93-2.58l.06-.08-.06-.08a4,4,0,0,1,.08-5.24L1.21,20l-.07-.08a4,4,0,0,1-.07-5.25l.06-.08-.06-.08a4.12,4.12,0,0,1-.93-2.57A4.16,4.16,0,0,1,1,9.46L1,9.37,1,9.29A4.23,4.23,0,0,1,0,6.66c0-2,1.59-3.85,4.49-5.07a23.91,23.91,0,0,1,9-1.58,23.91,23.91,0,0,1,9,1.58C25.37,2.81,27,4.61,27,6.66a4.18,4.18,0,0,1-.85,2.46L26,9.2l.06.08a4.05,4.05,0,0,1-.06,5.36l-.07.08.07.09a4.2,4.2,0,0,1,1,2.63,3.79,3.79,0,0,1-.11.91l0,.13.25.07.05-.12a4.68,4.68,0,0,1,1-1.71l.08-.09-.07-.09a4.25,4.25,0,0,1-1-2.66c0-2,1.59-3.85,4.49-5.07a23.91,23.91,0,0,1,9-1.58,23.91,23.91,0,0,1,9,1.58c2.89,1.22,4.49,3,4.49,5.07a4.34,4.34,0,0,1-1.23,2.92l-.07.08.06.09a4.16,4.16,0,0,1,.83,2.44A4.09,4.09,0,0,1,53,21.82l-.06.08L53,22a4.05,4.05,0,0,1,0,5.34l-.07.08.07.09a4.22,4.22,0,0,1,1,2.67A4.13,4.13,0,0,1,53,32.73l-.06.08.06.08A4.13,4.13,0,0,1,54,35.48a4.3,4.3,0,0,1-1.15,2.83l-.08.09.08.09A4.27,4.27,0,0,1,54,41.32c0,2-1.59,3.85-4.49,5.07a23.9,23.9,0,0,1-9,1.58,26.64,26.64,0,0,1-6.65-.8l-.11,0,0,.1a7.49,7.49,0,0,1-4.13,3.44A23.92,23.92,0,0,1,20.56,52.27ZM10.7,45.09a.88.88,0,0,0-.24.52c0,.26.43,1.1,2.42,1.94a20.52,20.52,0,0,0,7.68,1.32,20.47,20.47,0,0,0,7.68-1.32c1.42-.59,2.41-1.39,2.4-1.94a.94.94,0,0,0-.24-.52L30.32,45l-.1,0-.69.31a23.91,23.91,0,0,1-9,1.58,23.91,23.91,0,0,1-9-1.58l-.69-.32-.1,0Zm23.15-3.63a4.53,4.53,0,0,1-.75,1.4l-.06.08.06.08q.16.21.3.43l0,0,0,0a21.63,21.63,0,0,0,7,1.07,20.47,20.47,0,0,0,7.68-1.32c1.42-.59,2.42-1.39,2.42-1.94a1.47,1.47,0,0,0-.61-.9l-.07-.06-.08,0-.35.15a23.89,23.89,0,0,1-9,1.58A26.86,26.86,0,0,1,34,41.38l-.12,0Zm-22.69-.2a7,7,0,0,0,1.71,1,20.5,20.5,0,0,0,7.68,1.32,20.47,20.47,0,0,0,7.68-1.32c1.42-.59,2.42-1.39,2.42-1.94a1,1,0,0,0-.37-.67l-.07-.07-.09,0-.58.26a23.91,23.91,0,0,1-9,1.59,23.91,23.91,0,0,1-9-1.58L11,39.61l-.09,0-.07.07a1,1,0,0,0-.36.66.66.66,0,0,0,.09.3l.09.16.11-.11ZM3.76,38.7a.94.94,0,0,0-.24.52c0,.51,1.1,1.58,3.53,2.35l.24.08-.07-.24a3.85,3.85,0,0,1-.14-1.49V39.8l-.11,0a16.31,16.31,0,0,1-3.06-1.1l-.1,0Zm30-2.57a4.62,4.62,0,0,1-.68,1.22L33,37.5l.17.06a21.56,21.56,0,0,0,7.32,1.18,20.47,20.47,0,0,0,7.68-1.32c1.42-.59,2.42-1.39,2.42-1.94a.86.86,0,0,0-.24-.52l-.07-.08-.1,0-.7.32a23.91,23.91,0,0,1-9,1.58,26.67,26.67,0,0,1-6.53-.77l-.12,0Zm-23.1-1.86a.88.88,0,0,0-.24.52c0,.26.43,1.1,2.42,1.94a20.51,20.51,0,0,0,7.68,1.32,20.47,20.47,0,0,0,7.68-1.32c1.42-.59,2.42-1.39,2.42-1.94a.87.87,0,0,0-.25-.52l-.07-.08-.1,0-.7.32a23.91,23.91,0,0,1-9,1.58,23.91,23.91,0,0,1-9-1.58l-.69-.32-.1,0Zm-6.42.64,0,0a8.92,8.92,0,0,0,2.83,1.34l.26.08-.09-.25a3.86,3.86,0,0,1-.17-2l0-.12-.12,0A16.76,16.76,0,0,1,4.28,33L4.2,33,4.13,33a1.48,1.48,0,0,0-.61.9,1.18,1.18,0,0,0,.41.71l0,0h.17Zm29.57-4.27A4.52,4.52,0,0,1,33.11,32l-.11.14.17.06a21.11,21.11,0,0,0,7.31,1.18,20.48,20.48,0,0,0,7.68-1.32c1.42-.59,2.42-1.39,2.42-1.94a1.13,1.13,0,0,0-.36-.66l-.07-.07-.09,0-.58.26a23.92,23.92,0,0,1-9,1.59A26.87,26.87,0,0,1,34,30.56l-.12,0Zm-22.69-.2a7.05,7.05,0,0,0,1.71,1,20.51,20.51,0,0,0,7.68,1.32,20.48,20.48,0,0,0,7.68-1.32c1.42-.59,2.42-1.39,2.42-1.94a.65.65,0,0,0-.1-.31l-.06-.11-.12.06c-.27.14-.54.26-.83.38a23.9,23.9,0,0,1-9,1.58,23.91,23.91,0,0,1-9-1.58c-.3-.13-.57-.25-.82-.38l-.12-.06-.06.11a.56.56,0,0,0,0,.61l.09.16.1-.11Zm-7.4-2.91a.88.88,0,0,0-.23.51c0,.29.34.81,1.29,1.39A10.16,10.16,0,0,0,7,30.38l.22.07,0-.22a3.89,3.89,0,0,1-.07-.75,3.76,3.76,0,0,1,.07-.7l0-.12-.12,0A15.93,15.93,0,0,1,3.92,27.5l-.1,0Zm30.13-2.07a4.26,4.26,0,0,1-.53,1.17l-.09.14.16.06a21.6,21.6,0,0,0,7.06,1.08,20.48,20.48,0,0,0,7.68-1.32c1.42-.59,2.42-1.39,2.42-1.94a1,1,0,0,0-.26-.54L50.24,24l-.1,0c-.29.15-.58.28-.88.41a23.89,23.89,0,0,1-9,1.58,27.15,27.15,0,0,1-6.23-.7l-.13,0ZM20.55,21.16a20.47,20.47,0,0,0-7.68,1.32c-1.42.59-2.42,1.39-2.42,1.94,0,.26.43,1.1,2.42,1.94a20.52,20.52,0,0,0,7.68,1.32,20.47,20.47,0,0,0,7.68-1.32c1.42-.59,2.42-1.39,2.42-1.94,0-.26-.43-1.1-2.42-1.94A20.47,20.47,0,0,0,20.55,21.16ZM4.23,23.71a4.72,4.72,0,0,0,.59.42,10.54,10.54,0,0,0,2.11.92l.2.07,0-.21a3.86,3.86,0,0,1,0-.49,3.91,3.91,0,0,1,.16-1.11l0-.14-.14,0A16.7,16.7,0,0,1,4,22.05L4,22l-.07.07a1,1,0,0,0-.36.66,1.2,1.2,0,0,0,.4.71l0,0h.11Zm26.77-5a1.47,1.47,0,0,0-.6.89.39.39,0,0,0,0,.08v.06l.06,0a8.56,8.56,0,0,1,2.21,1.59l0,0h0a20.75,20.75,0,0,0,7.55,1.27A20.47,20.47,0,0,0,48,21.36c1.42-.59,2.42-1.39,2.42-1.94a.9.9,0,0,0-.25-.54l-.07-.08-.37.16a23.9,23.9,0,0,1-9,1.58,23.91,23.91,0,0,1-9-1.58l-.56-.25-.08,0Zm-27.23-2a.88.88,0,0,0-.24.52c0,.68,1.89,2.3,6.27,3h0l0,0a12.1,12.1,0,0,1,1.66-.85c.44-.18.9-.35,1.39-.51l0-.26A23.47,23.47,0,0,1,4.62,17l-.69-.31-.1,0Zm19.37,0L22.6,17c-.43.18-.9.35-1.38.51l0,.26c.7,0,1.41.06,2.1.13h.08l0-.07a.74.74,0,0,0,.15-.39,1.08,1.08,0,0,0-.34-.65l-.07-.07Zm17.56-6.16A20.47,20.47,0,0,0,33,11.93c-1.4.59-2.41,1.41-2.42,1.95,0,.26.43,1.1,2.42,1.94a20.52,20.52,0,0,0,7.68,1.32,20.47,20.47,0,0,0,7.68-1.32c1.42-.59,2.42-1.39,2.42-1.94,0-.26-.43-1.1-2.42-1.94A20.52,20.52,0,0,0,40.69,10.61ZM4.22,12.9a7.06,7.06,0,0,0,1.71,1,20.51,20.51,0,0,0,7.68,1.32,20.47,20.47,0,0,0,7.68-1.32c1.42-.59,2.42-1.39,2.42-1.94a.9.9,0,0,0-.25-.54l-.07-.08-.1,0c-.26.13-.53.26-.81.37a23.91,23.91,0,0,1-9,1.59,23.91,23.91,0,0,1-9-1.58l-.62-.28-.1,0-.07.09a.8.8,0,0,0-.18.44.65.65,0,0,0,.09.3l.09.16.1-.11Zm9.26-9.5A20.47,20.47,0,0,0,5.8,4.71c-1.4.59-2.41,1.4-2.42,1.95,0,.26.43,1.1,2.42,1.94a20.51,20.51,0,0,0,7.68,1.32A20.47,20.47,0,0,0,21.15,8.6c1.42-.59,2.42-1.39,2.42-1.94,0-.26-.43-1.1-2.42-1.94A20.51,20.51,0,0,0,13.47,3.39Z"/><polygon class="cls-1" points="14.9 24.43 20.55 26.05 26.2 24.43 20.55 22.8 14.9 24.43"/><polygon class="cls-1" points="15.39 24.43 20.55 22.93 25.71 24.43 20.55 25.91 15.39 24.43"/><polygon class="cls-1" points="7.83 6.41 13.47 8.04 19.12 6.41 13.47 4.78 7.83 6.41"/><polygon class="cls-1" points="8.31 6.41 13.47 4.92 18.63 6.41 13.47 7.9 8.31 6.41"/><polygon class="cls-1" points="35.04 13.88 40.69 15.51 46.34 13.88 40.69 12.25 35.04 13.88"/><polygon class="cls-1" points="35.53 13.88 40.69 12.39 45.85 13.88 40.69 15.37 35.53 13.88"/></g></g></svg>