<svg xmlns="http://www.w3.org/2000/svg" viewBox="0 0 66.93 62.88"><defs><style>.cls-1{fill:#18252f;}.cls-2{fill:#417abb;}.cls-3{fill:none;}.cls-4{fill:#39464f;}</style></defs><title>项目清单</title><g id="图层_2" data-name="图层 2"><g id="图层_1-2" data-name="图层 1"><line class="cls-1" x1="66.52" y1="23.22" x2="66.52" y2="28.26"/><rect class="cls-2" x="13.12" y="23.54" width="16.05" height="1.87"/><rect class="cls-2" x="13.12" y="14.3" width="16.05" height="1.87"/><rect class="cls-2" x="13.12" y="18.92" width="16.05" height="1.87"/><rect class="cls-2" x="16.58" y="7.84" width="9.13" height="1.87"/><rect class="cls-2" x="37.57" y="14.3" width="16.05" height="1.87"/><rect class="cls-2" x="37.57" y="9.5" width="16.05" height="1.87"/><rect class="cls-2" x="37.57" y="23.54" width="16.05" height="1.87"/><rect class="cls-2" x="37.57" y="18.92" width="16.05" height="1.87"/><polygon class="cls-2" points="34.26 41.54 34.26 36.45 34.23 36.45 34.23 1.31 32.01 1.31 32.01 41.54 34.26 41.54"/><rect class="cls-2" x="13.12" y="28.15" width="16.05" height="1.87"/><polygon class="cls-2" points="29.17 32.56 16.21 32.56 19.22 34.44 29.17 34.44 29.17 32.56"/><polygon class="cls-2" points="29.17 36.97 22.93 36.97 25.93 38.85 29.17 38.85 29.17 36.97"/><polygon class="cls-2" points="37.57 36.97 43.82 36.97 40.81 38.85 37.57 38.85 37.57 36.97"/><polygon class="cls-2" points="37.57 34.44 47.5 34.44 50.51 32.56 37.57 32.56 37.57 34.44"/><rect class="cls-2" x="37.57" y="28.15" width="16.05" height="1.87"/><polygon class="cls-3" points="62.04 25.27 63.74 24.2 62.16 22.79 62.04 25.27"/><polygon class="cls-3" points="62.04 25.27 63.74 24.2 62.16 22.79 62.04 25.27"/><polygon class="cls-3" points="26.05 46.62 7.89 59.16 59.04 59.16 40.88 46.62 26.05 46.62"/><path class="cls-3" d="M5.16,33.79l-.06,0-.84-.58v23L20.92,44.68Z"/><path class="cls-3" d="M61.59,34.08,46.12,44.76,62.78,56.27V33.32l-.82.57A1.56,1.56,0,0,1,61.59,34.08Z"/><path class="cls-3" d="M61.59,34.08,46.12,44.76,62.78,56.27V33.32l-.82.57A1.56,1.56,0,0,1,61.59,34.08Z"/><path class="cls-3" d="M5.16,33.79l-.06,0-.84-.58v23L20.92,44.68Z"/><path class="cls-2" d="M65.59,26l-2.42-2.4L63.19,8A1.86,1.86,0,0,0,61.44,6H58.77V2.73A2.62,2.62,0,0,0,56.29,0H10.59A2.62,2.62,0,0,0,8.12,2.73V6H5.51A1.86,1.86,0,0,0,3.75,8V23.66L1.49,25.91,11.62,33.2V6.92A2,2,0,0,1,13.54,4.8H53.23a2,2,0,0,1,1.92,2.12V33.24Z"/><path class="cls-4" d="M24.14,41.54"/><path class="cls-4" d="M66.47,26.77l0,0-.1-.12-.76-.76-23,15.49H24.13l-8.56-5.91,0,0L1.49,25.74l-.68.67v0A2,2,0,0,0,0,28.09V61.84H.21a1.79,1.79,0,0,0,1.32,1l.22,0H65.19A1.72,1.72,0,0,0,66.65,62l.07-.13h.21V28.29A2.07,2.07,0,0,0,66.47,26.77ZM19.72,41.36l.08.13L19.5,41ZM4.26,33l.84.58.06,0L20.92,44.51,4.26,56ZM7.89,59,24.06,47.82h0l2-1.39H40.88L59,59ZM62.77,56.1,46.12,44.59,61.58,33.91a1.56,1.56,0,0,0,.37-.19l.82-.57Z"/></g></g></svg>