<svg xmlns="http://www.w3.org/2000/svg" viewBox="0 0 52.87 51.36"><defs><style>.cls-1{fill:#417abb;}</style></defs><title>待办事项</title><g id="图层_2" data-name="图层 2"><g id="图层_1-2" data-name="图层 1"><path class="cls-1" d="M27.63,20.91H14.45a2.1,2.1,0,0,0,0,4.2H27.63a2.1,2.1,0,0,0,0-4.2Z"/><path class="cls-1" d="M14.43,18h24a2.1,2.1,0,0,0,0-4.2h-24a2.1,2.1,0,0,0,0,4.2Z"/><path class="cls-1" d="M14.45,10.8H38.36a2.1,2.1,0,0,0,0-4.2H14.45a2.1,2.1,0,0,0,0,4.2Z"/><path class="cls-1" d="M50.84,27.66H47.65V5.42a5.65,5.65,0,0,0-1.41-3.74l-.07-.08h-.05A5,5,0,0,0,42.49,0H10.38A5.34,5.34,0,0,0,5.22,5.43V27.68H2a2.08,2.08,0,0,0-2,2.14v19.4a2.08,2.08,0,0,0,2,2.14H50.87a2.07,2.07,0,0,0,2-2.14V29.8A2.07,2.07,0,0,0,50.84,27.66ZM8.74,5.92V5.38a1.88,1.88,0,0,1,.49-1.27,1.58,1.58,0,0,1,1.15-.51H42.49a1.67,1.67,0,0,1,1.13.45l0,.08,0,0a1.92,1.92,0,0,1,.45,1.24V27.67H38.91a2.1,2.1,0,0,0-2,1.8,11.12,11.12,0,0,1-3.58,6.68,10.11,10.11,0,0,1-13.76,0A10.9,10.9,0,0,1,16,29.62a2,2,0,0,0-2-1.95H8.73V5.92ZM48.81,47.07H4.07V31.9h8.26a15.62,15.62,0,0,0,4.57,7.51,14.22,14.22,0,0,0,19,0,15.59,15.59,0,0,0,4.57-7.51h8.29Z"/></g></g></svg>