<svg xmlns="http://www.w3.org/2000/svg" viewBox="0 0 48.98 48.98"><defs><style>.cls-1{fill:#f8835e;}</style></defs><title>项目2</title><g id="图层_2" data-name="图层 2"><g id="图层_1-2" data-name="图层 1"><path class="cls-1" d="M42.43,0H12.53A6.56,6.56,0,0,0,6,6a6.56,6.56,0,0,0-6,6.53v29.9A6.56,6.56,0,0,0,6.55,49h29.9A6.56,6.56,0,0,0,43,43a6.56,6.56,0,0,0,6-6.53V6.55A6.56,6.56,0,0,0,42.43,0ZM12.53,4.13h29.9a2.43,2.43,0,0,1,2.42,2.42v29.9A2.43,2.43,0,0,1,43,38.81V12.53A6.56,6.56,0,0,0,36.45,6H10.17A2.43,2.43,0,0,1,12.53,4.13ZM38.87,17.94H4.12V12.53a2.43,2.43,0,0,1,2.42-2.42h29.9a2.43,2.43,0,0,1,2.42,2.42ZM4.12,22.07H38.87V42.43a2.43,2.43,0,0,1-2.42,2.42H6.55a2.43,2.43,0,0,1-2.42-2.42Z"/><circle class="cls-1" cx="34.96" cy="14.02" r="2.06"/><path class="cls-1" d="M26,12H8a2.06,2.06,0,0,0,0,4.13H26A2.06,2.06,0,0,0,26,12Z"/></g></g></svg>