<svg xmlns="http://www.w3.org/2000/svg" viewBox="0 0 52.58 53.83"><defs><style>.cls-1{fill:#f8835e;}</style></defs><title>验收1</title><g id="图层_2" data-name="图层 2"><g id="图层_1-2" data-name="图层 1"><path class="cls-1" d="M51.41,29.82l-6.13-5.91c-.92-.83-2.47-.65-3.26-.62a14.13,14.13,0,1,0-1.58,1.58c0,.8-.22,2.34.62,3.26L47,34.27a3.16,3.16,0,1,0,4.45-4.45ZM31.27,23.55a9.42,9.42,0,1,1,9.42-9.42A9.42,9.42,0,0,1,31.27,23.55Z"/><path class="cls-1" d="M39,31.31c-1.48,0-2.13,1.85-2.13,1.85V46.29c0,2.37-1.31,3.12-3.68,3.12H20.82c-.17-.61-.12-10.8-.12-10.8,0-2.37-2.91-5.27-5.28-5.27L4.25,33.28V13.77c0-2.37.75-3.12,3.12-3.12h6.48a2.27,2.27,0,0,0,1.44-2,2.62,2.62,0,0,0-1.44-2.16H5.47A5.92,5.92,0,0,0,0,11.92V37H.1l0,0L16.7,53.83H36.22c2.71,0,4.91-3,4.91-5.69v-15S40.57,31.31,39,31.31ZM16.68,47.46c0,.38,0,.21,0,.59L5.61,37h7.16c2.71,0,3.93,1.46,3.93,4.17C16.7,41.15,16.69,44.45,16.68,47.46Z"/><path class="cls-1" d="M7,26.17A1.69,1.69,0,0,0,8.63,27.9h7.85a1.73,1.73,0,1,0,0-3.46H8.68A1.73,1.73,0,0,0,7,26.17Z"/></g></g></svg>