<svg xmlns="http://www.w3.org/2000/svg" viewBox="0 0 56.38 56.24"><defs><style>.cls-1{fill:#a6c8f0;}</style></defs><title>船队</title><g id="图层_2" data-name="图层 2"><g id="图层_1-2" data-name="图层 1"><ellipse class="cls-1" cx="21.29" cy="38.06" rx="2.48" ry="2.35"/><ellipse class="cls-1" cx="16.04" cy="39.35" rx="2.21" ry="2.1"/><ellipse class="cls-1" cx="11.01" cy="40.63" rx="1.97" ry="1.88"/><ellipse class="cls-1" cx="44.77" cy="40.63" rx="1.97" ry="1.88"/><ellipse class="cls-1" cx="34.78" cy="37.84" rx="2.48" ry="2.35"/><ellipse class="cls-1" cx="40.03" cy="39.13" rx="2.21" ry="2.1"/><path class="cls-1" d="M9.92,30.51a1.66,1.66,0,0,0,.51-.09,10.54,10.54,0,0,1,1.28-.34,1.57,1.57,0,0,0,1.49-1.72v-.28c0-.44,0-.9,0-1.35,0-.2,0-.2.23-.24A10.13,10.13,0,0,0,15,26l.47-.16,1.33-.44c.69-.23,1.38-.46,2.08-.68s1.13-.33,1.72-.49,1.26-.35,1.89-.55c.87-.27,1.73-.56,2.59-.84l2.37-.78a4.21,4.21,0,0,1,.7-.15,6.16,6.16,0,0,1,.77.18l2.4.78c.85.28,1.71.57,2.57.84.64.2,1.32.39,1.94.56s1.12.31,1.68.48,1.39.45,2.12.69l1.29.43.47.16a10.11,10.11,0,0,0,1.58.44c.24,0,.24,0,.23.24,0,.44,0,.89,0,1.34v.3a1.57,1.57,0,0,0,1.49,1.72,10.64,10.64,0,0,1,1.28.34,1.67,1.67,0,0,0,.51.09,1.08,1.08,0,0,0,1.1-1.16c0-1.76,0-3.23,0-4.63,0-1.09-1-1.4-1.56-1.59L45.33,23a8.3,8.3,0,0,1-.86-.25.48.48,0,0,1-.08-.21c0-1.13,0-2.32,0-3.75a1.35,1.35,0,0,0-1.14-1.51c-.94-.28-1.88-.62-2.79-1l-.05,0c-.57-.21-1.14-.42-1.72-.62-1-.34-2-.65-3-1l-1.58-.51-.62-.2c-.78-.25-1.58-.51-2.36-.8l-.59-.2-.12-.87h4.07a1,1,0,0,0,1-1v-.91a1,1,0,0,0-1-1H30l-.09-.68h3.1a1,1,0,0,0,1-1v-.8a1,1,0,0,0-1-1H29.56l-.08-.54H31a1,1,0,0,0,1-1V3.46a1,1,0,0,0-1-1H29.11L28.76,0h-1l-.36,2.46H25.42a1,1,0,0,0-1,1v.76a1,1,0,0,0,1,1H27l-.08.54H23.33a1,1,0,0,0-1,1v.8a1,1,0,0,0,1,1h3.15l-.1.68H21.87a1,1,0,0,0-1,1v.91a1,1,0,0,0,1,1H26l-.12.85-.62.2c-.76.29-1.57.55-2.35.8l-.62.2-1.58.51c-1,.32-2,.63-3,1-.59.2-1.17.42-1.76.63-.91.34-1.86.68-2.8,1A1.35,1.35,0,0,0,12,18.74c0,1.43,0,2.62,0,3.75a.63.63,0,0,1-.06.19A6.54,6.54,0,0,1,11,23l-.65.18c-.58.19-1.55.49-1.56,1.59,0,1.4,0,2.87,0,4.63A1.08,1.08,0,0,0,9.92,30.51Zm5.61-10.1a1.58,1.58,0,0,1,.57-.77,1,1,0,0,1,.24-.12l2.21-.71c1.67-.54,3.34-1.07,5-1.62,1-.33,2-.7,3-1.06l.34-.13.4-.13a1.7,1.7,0,0,1,.45-.08l.22,0v-.13l.21,0h.07a1.75,1.75,0,0,1,.37,0,6.29,6.29,0,0,1,1,.34l.31.12c1,.36,2,.74,3,1.07,1.65.55,3.31,1.08,5,1.62l2.23.72a1.42,1.42,0,0,1,.81.89,1.55,1.55,0,0,1-.06,1.32.82.82,0,0,1-.74.43A2.07,2.07,0,0,1,39.4,22L39.23,22,38,21.61l0,0-1.21-.38-1.62-.49-1.63-.49-1.39-.43c-.9-.28-1.84-.58-2.76-.84-.26-.07-.47-.13-.66-.16v-.06h-.81V18.6l-.19.08a5.86,5.86,0,0,1-.73.25c-.93.27-1.86.56-2.76.84l-1.38.43-1.55.47-1.69.51-1.15.36-.05,0L17.15,22,17,22a2,2,0,0,1-.65.15.82.82,0,0,1-.73-.43,1.23,1.23,0,0,1-.14-.41v-.06a1,1,0,0,1,0-.14A1.82,1.82,0,0,1,15.53,20.41Z"/><path class="cls-1" d="M56.23,35.15A1.73,1.73,0,0,0,55,34.4l-2-.46c-.79-.18-1.58-.35-2.37-.55s-1.61-.42-2.41-.64l0,.13v-.14l-2-.52c-.54-.14-1.08-.26-1.62-.37h0l-.94-.21c-.69-.16-1.38-.32-2.06-.5L40,30.71l-.07,0c-.89-.24-1.81-.49-2.73-.72s-1.62-.38-2.43-.55l-2.11-.48c-.76-.18-1.57-.38-2.41-.61-.2,0-.41-.11-.63-.18a7.49,7.49,0,0,0-.92-.25v0l-.94,0-.14,0v0h0a5.25,5.25,0,0,0-1,.26c-.18.06-.35.12-.54.16-.83.22-1.68.43-2.39.6l-2.15.49c-.8.18-1.6.35-2.39.55s-1.83.47-2.73.72l-.07,0-1.56.42c-.68.18-1.37.34-2.06.5l-1,.22c-.54.12-1.08.24-1.61.37l-2,.54c-.8.22-1.6.44-2.41.64s-1.58.37-2.37.55l-2,.46a1.73,1.73,0,0,0-1.18.75,1.46,1.46,0,0,0,0,1.23l.28.79a29.73,29.73,0,0,0,1.32,3.38c1.2,2.46,2.5,4.85,3.72,7.06a40.57,40.57,0,0,0,5.8,7.57,3.07,3.07,0,0,0,2.34,1.05,4.25,4.25,0,0,0,.84-.09,6.6,6.6,0,0,0,1.7-.67c.55-.28,1-.55,1.05-1.06s-.36-.85-.85-1.21c-.16-.12-.31-.25-.46-.39a32.92,32.92,0,0,1-6.51-8.17c-1-1.72-1.84-3.54-2.69-5.29l-.54-1.09a.45.45,0,0,1,0-.12,6.73,6.73,0,0,1,1.26-.38l1.86-.42c.86-.19,1.74-.38,2.61-.6s1.88-.49,2.79-.74l.1,0,1.54-.42c.66-.18,1.32-.33,2-.49l1-.23h.05c.59-.13,1.17-.26,1.75-.41l2.25-.6h.05l2-.53.49-.12,1,15h-.22l.08.19.19.41,0,.24,0,.13h0v.11h.26a.89.89,0,0,0,.56.2h.93a.88.88,0,0,0,.59-.23h.13l.12-.36.25-.73h-.18l.83-14.9.48.12,2,.54,2.25.6c.58.15,1.17.28,1.75.41h.05l1,.23c.66.16,1.33.31,2,.49L41.7,36c.91.25,1.86.51,2.79.75s1.8.42,2.62.6h.07l1.81.41a6.64,6.64,0,0,1,1.23.37l0,.09-.54,1.12c-.85,1.76-1.72,3.57-2.69,5.3a32.92,32.92,0,0,1-6.51,8.17c-.17.16-.32.28-.46.39-.49.37-.89.71-.85,1.21s.5.78,1.05,1.06a6.62,6.62,0,0,0,1.7.67,4.26,4.26,0,0,0,.84.09,3.07,3.07,0,0,0,2.34-1.05,40.56,40.56,0,0,0,5.8-7.57c1.22-2.21,2.52-4.6,3.72-7.06A29.67,29.67,0,0,0,56,37.18l.28-.8A1.46,1.46,0,0,0,56.23,35.15Z"/></g></g></svg>