<svg xmlns="http://www.w3.org/2000/svg" viewBox="0 0 58.29 51.27"><defs><style>.cls-1{fill:#417abb;}</style></defs><title>消息</title><g id="图层_2" data-name="图层 2"><g id="图层_1-2" data-name="图层 1"><path class="cls-1" d="M49.69,17.86a1.83,1.83,0,0,0-.73-.15A2.08,2.08,0,0,0,47.09,19a1.87,1.87,0,0,0,0,1.54,2.12,2.12,0,0,0,1.11,1.06A10,10,0,0,1,54.38,31c0,4.82-3.12,9-7.41,9.84l-1.6.29v6.16l-6-6.25H35.64a8.9,8.9,0,0,1-6.92-3.47,2,2,0,0,0-1.52-.74,1.92,1.92,0,0,0-1.24.46,2,2,0,0,0-.73,1.31,1.9,1.9,0,0,0,.44,1.43A12.64,12.64,0,0,0,35.75,45h2l5,5.19a3.77,3.77,0,0,0,2.69,1.1,5.92,5.92,0,0,0,1.21-.17l.32-.07L47,51a3.9,3.9,0,0,0,2.31-3.53V44.2a14.26,14.26,0,0,0,.41-26.35Z"/><path class="cls-1" d="M29.46,35.55c8.23,0,15.16-6.32,16.46-15l0-.27a21.49,21.49,0,0,0,.18-2.41C46,8,38.55,0,29.46,0H16.68C7.48,0,0,8,0,17.83,0,25.91,5,32.91,12.26,35v5.25a3.9,3.9,0,0,0,2.55,3.65h.06a5.68,5.68,0,0,0,1.39.23,4.19,4.19,0,0,0,2.91-1.21l7.07-7.38ZM15.75,40.15V31.81l-1.39-.15C8.12,30.55,3.6,24.69,3.6,17.72c0-7.79,5.82-14.13,13-14.13H29.25c7.16,0,13,6.34,13,14.13A20.59,20.59,0,0,1,42,20c-1,6.9-6.37,11.9-12.77,11.9H24.52l-8.22,8.54a.48.48,0,0,1-.29.09h-.1C15.81,40.44,15.75,40.32,15.75,40.15Z"/><path class="cls-1" d="M12.38,15.86H33.23a1.9,1.9,0,1,0,0-3.81H12.38a1.9,1.9,0,0,0,0,3.81Z"/><path class="cls-1" d="M26.86,22a1.93,1.93,0,0,0-1.9-1.9H12.49a1.9,1.9,0,0,0,0,3.81H25A1.93,1.93,0,0,0,26.86,22Z"/></g></g></svg>