<svg xmlns="http://www.w3.org/2000/svg" viewBox="0 0 51.87 59.33"><defs><style>.cls-1{fill:#417abb;}</style></defs><title>船队1</title><g id="图层_2" data-name="图层 2"><g id="图层_1-2" data-name="图层 1"><path class="cls-1" d="M15.67,48.46c1,3,2,3.65,4.23,3C19.13,48.11,18.2,47.44,15.67,48.46Z"/><path class="cls-1" d="M23,4.69h2.42l-2.4,0Z"/><path class="cls-1" d="M14.24,11.43c-2,.56-2.33,1.1-1.92,3.56a67.54,67.54,0,0,1,13.57-1.41V9.81A43.64,43.64,0,0,0,14.24,11.43Z"/><path class="cls-1" d="M25.43,4.68H23a1.21,1.21,0,0,1-1.84,0h-.06c-.34,0-.76,0-1,0s-.87,0-.92.36.6.6,1,.69c1.11.28,2.24.47,3.37.66,1.48.25,1.55.35,1.14,1.9h1.21V4.69Z"/><path class="cls-1" d="M25.43,4.68h.46V0C25,.2,25.41,3.31,25,4.67H23Z"/><polygon class="cls-1" points="25.43 4.68 25.89 4.69 25.89 4.68 25.43 4.68"/><path class="cls-1" d="M23,4.67h0a1.22,1.22,0,1,0-1.86,0H23Z"/><path class="cls-1" d="M22.09,5.11A1.22,1.22,0,0,0,23,4.69H21.17A1.22,1.22,0,0,0,22.09,5.11Z"/><path class="cls-1" d="M23,4.67h0Z"/><path class="cls-1" d="M48,27.3l.14-1.83c.77-.4,1.59-.55,1.79-1,.74-1.66,1.29-3.41,2-5.36-7.29-1-14.35-1.94-21.43-2.86a30.32,30.32,0,0,0-4.55-.36v2.89Q36.92,18.76,48,27.3Z"/><path class="cls-1" d="M39.69,15c.21-2.71,0-3.07-2.1-3.64a44.56,44.56,0,0,0-11.7-1.58v3.77A66.3,66.3,0,0,1,39.69,15Z"/><path class="cls-1" d="M28.57,6.43c1.2-.21,2.39-.46,3.57-.75.22-.05.61-.29.58-.56s-.49-.31-.77-.38a3,3,0,0,0-.69-.07h-.52a1.21,1.21,0,0,1-1.83,0h-2v0h-1V8.34H27.4C26.92,6.73,27,6.71,28.57,6.43Z"/><path class="cls-1" d="M28.9,4.71l0,0h0Z"/><path class="cls-1" d="M26.9,4.68C26.63,3.15,26.88,0,26,0l-.08,0V4.68Z"/><path class="cls-1" d="M26.9,4.7v0h0Z"/><path class="cls-1" d="M25.89,4.69h0Z"/><path class="cls-1" d="M31,3.89a1.22,1.22,0,1,0-2.15.79h1.86A1.21,1.21,0,0,0,31,3.89Z"/><path class="cls-1" d="M29,4.71H28.9a1.21,1.21,0,0,0,1.83,0H28.87l0,0Z"/><path class="cls-1" d="M28.9,4.71h0Z"/><path class="cls-1" d="M25.69,55.11,23.56,21.83a32.84,32.84,0,0,0-10.27,3.1,25.49,25.49,0,0,0-8.63,6c-1.4,1.62-2.3,3.31-1.38,5.67C6,43.44,8.5,50.36,11.1,57.25c.87,2.3,1.55,2.56,3.84,1.45A5.68,5.68,0,0,1,16,58.1a2.42,2.42,0,0,1,1.57,0,6.5,6.5,0,0,0,7.57,0,1.5,1.5,0,0,1,.73-.18V55.11Zm-3.31-.92a.91.91,0,0,0-.47.12,4,4,0,0,1-4.88,0c-.24-.17-.69-.07-1,0s-.46.29-.7.42c-1.47.77-1.92.59-2.48-1-1.67-4.78-3.69-11.54-5.43-16.29a3.72,3.72,0,0,1,.89-3.93,16.48,16.48,0,0,1,5.56-4.15,20.11,20.11,0,0,1,6.62-2.15c.46,7.76,1.31,17.38,1.77,25h.13Z"/><path class="cls-1" d="M15.61,48.15c2.53-1,3.46-.35,4.23,3C17.58,51.8,16.66,51.17,15.61,48.15Z"/><path class="cls-1" d="M36.79,48.46c-1,3-2,3.65-4.23,3C33.33,48.11,34.26,47.44,36.79,48.46Z"/><path class="cls-1" d="M26.56,55.11v2.84a1.5,1.5,0,0,1,.73.18,6.5,6.5,0,0,0,7.57,0,2.42,2.42,0,0,1,1.57,0,5.68,5.68,0,0,1,1.09.61c2.29,1.1,3,.85,3.84-1.45,2.6-6.89,5.12-13.81,7.81-20.66.93-2.35,0-4-1.38-5.67a25.49,25.49,0,0,0-8.63-6,32.84,32.84,0,0,0-10.27-3.1L26.76,55.11Zm3.51-2.89h.13c.46-7.66,1.31-17.28,1.77-25a20.11,20.11,0,0,1,6.62,2.15,16.48,16.48,0,0,1,5.56,4.15A3.72,3.72,0,0,1,45,37.42c-1.74,4.75-3.76,11.51-5.43,16.29-.56,1.59-1,1.77-2.48,1-.24-.13-.45-.36-.7-.42s-.77-.18-1,0a4,4,0,0,1-4.88,0,.91.91,0,0,0-.47-.12Z"/><path class="cls-1" d="M36.84,48.15c-2.53-1-3.46-.35-4.23,3C34.88,51.8,35.79,51.17,36.84,48.15Z"/><path class="cls-1" d="M25.32,15.92c-3.28.22-6.55.61-9.81,1C10.41,17.65,5.34,18.44.08,19.2c.51,1.37,1,2.55,1.38,3.77s.68,2.46,2.37,2.21L4,27.3c1.82-1.41.93-5.35.93-5.35s15.5-3.14,21-3.16V15.9Z"/><path class="cls-1" d="M3.91,27.3l-.14-1.83c-.77-.4-1.59-.55-1.79-1C1.24,22.82.7,21.07,0,19.12c7.29-1,14.35-1.94,21.43-2.86A30.32,30.32,0,0,1,26,15.9v2.89Q14.94,18.76,3.91,27.3Z"/></g></g></svg>