<svg xmlns="http://www.w3.org/2000/svg" viewBox="0 0 52.58 52.1"><defs><style>.cls-1{fill:#fff;}.cls-2{fill:#7994ff;}</style></defs><title>hover-purchase</title><g id="图层_2" data-name="图层 2"><g id="图层_1-2" data-name="图层 1"><path class="cls-1" d="M46.9,20.18H6.09C2.39,20.18,0,23.8,0,26.35c0,3.54,2.22,5.76,4.53,6.17L7.08,46a7.45,7.45,0,0,0,7,6.09H38.26a7.36,7.36,0,0,0,7-6.09L48,32.69c3.13-1.15,4.61-3.13,4.61-6.17a6.21,6.21,0,0,0-5.84-6.42h.16Zm0,7.82L44,28.16,40.81,43.79a4.55,4.55,0,0,1-4.11,3.46H15.8a4.55,4.55,0,0,1-4.11-3.46l-3-15.63-3-.33a1.5,1.5,0,0,1-1.23-1.48A1.38,1.38,0,0,1,6,24.87L46.9,24.7a1.52,1.52,0,0,1,1.65,1.48A1.54,1.54,0,0,1,46.9,28ZM44.76,16.56a2.33,2.33,0,0,1-3.29,0L28.88,4A2.33,2.33,0,1,1,32.17.68L44.76,13.27A2.33,2.33,0,0,1,44.76,16.56Zm-36.94,0a2.33,2.33,0,0,0,3.29,0L23.7,4A2.33,2.33,0,0,0,20.41.68L7.82,13.35A2.24,2.24,0,0,0,7.82,16.56Z"/><path class="cls-2" d="M37.28,41.7a1.85,1.85,0,1,1-3.65-.64l1.93-10.94a1.85,1.85,0,1,1,3.65.61v0Z"/><path class="cls-2" d="M17.85,43.12a1.83,1.83,0,0,1-2.12-1.48h0l-1.9-10.84a1.83,1.83,0,0,1,3.6-.64L19.33,41A1.83,1.83,0,0,1,17.85,43.12Z"/><path class="cls-2" d="M26.5,43.3a1.85,1.85,0,0,1-1.85-1.85h0V30.34a1.85,1.85,0,1,1,3.7,0V41.45A1.85,1.85,0,0,1,26.5,43.3Z"/></g></g></svg>