<svg xmlns="http://www.w3.org/2000/svg" viewBox="0 0 56.34 46.42"><defs><style>.cls-1{fill:#093284;}.cls-2{fill:#7994ff;}</style></defs><title>hr</title><g id="图层_2" data-name="图层 2"><g id="图层_1-2" data-name="图层 1"><path class="cls-1" d="M44.4,42.37"/><path class="cls-2" d="M14.65,22.31V20.73a.22.22,0,0,0-.23-.23c0-.23-.23-.23-.23-.45-.23-.23-.45-.23-.68-.45A5.86,5.86,0,0,1,9.92,14.2a6,6,0,0,1,4.51-5.86,2.08,2.08,0,1,0-.9-4.06A10.09,10.09,0,0,0,5.86,14a9.54,9.54,0,0,0,2.7,6.76A16,16,0,0,0,0,34.93v3.15a2,2,0,1,0,4.06,0V34.93a12.1,12.1,0,0,1,9-11.72,1.19,1.19,0,0,0,1.58-.9Z"/><path class="cls-2" d="M47.78,21a10.62,10.62,0,0,0,2.7-6.76A10.14,10.14,0,0,0,43,4.51a2.13,2.13,0,0,0-2.48,1.35,2.13,2.13,0,0,0,1.35,2.48,6,6,0,0,1,4.51,5.86,5.64,5.64,0,0,1-3.61,5.41c-.23,0-.45.23-.68.45s-.23.23-.23.45a.22.22,0,0,1-.23.23v1.58a1.69,1.69,0,0,0,1.58,1.13,11.86,11.86,0,0,1,9,11.72v3.16a2,2,0,0,0,4.06,0V35.16A16,16,0,0,0,47.78,21Z"/><path class="cls-2" d="M47.78,21"/><path class="cls-1" d="M35.61,21.63a11.85,11.85,0,0,0,4.73-9.47,12.17,12.17,0,1,0-24.34,0,11.85,11.85,0,0,0,4.73,9.47A20,20,0,0,0,8.11,40.34V44.4a2,2,0,0,0,2,2H46.43a2,2,0,0,0,2-2V40.34A20.39,20.39,0,0,0,35.61,21.63ZM20.28,12.17a8.11,8.11,0,1,1,8.11,8.11A8.08,8.08,0,0,1,20.28,12.17Zm23.89,30.2h-32v-2a16,16,0,0,1,32,0Z"/></g></g></svg>