<svg xmlns="http://www.w3.org/2000/svg" viewBox="0 0 50.84 50.84"><title>manufacture</title><g id="图层_2" data-name="图层 2"><g id="图层_1-2" data-name="图层 1"><path d="M39,50.84A11.86,11.86,0,1,1,50.84,39,11.75,11.75,0,0,1,39,50.84Zm8.47-11.3a.75.75,0,0,0-.85-.85H40.39V33.32a.75.75,0,0,0-.85-.85h-.85a.75.75,0,0,0-.85.85v7.06a.75.75,0,0,0,.85.85h7.9a.75.75,0,0,0,.85-.85v-.85ZM25.7,31.63H9.6a2.53,2.53,0,0,0-2.54,2.54V35A2.53,2.53,0,0,0,9.6,37.56H23.72v.85A12.74,12.74,0,0,0,28,48H7.06A7,7,0,0,1,0,41.08s0-.09,0-.13V7.06A7,7,0,0,1,6.92,0H27.11V5.37a7,7,0,0,0,7.06,7.06h7.06V26.26a11.69,11.69,0,0,0-4.52-.85A13.19,13.19,0,0,0,25.7,31.63ZM33.32,22a2.53,2.53,0,0,0-2.54-2.54H9.6A2.53,2.53,0,0,0,7.06,22v.85A2.53,2.53,0,0,0,9.6,25.42H30.5A2.53,2.53,0,0,0,33,22.9s0,0,0,0V22ZM39.54,9.6H31.63a1.82,1.82,0,0,1-1.69-1.7V0h2.54l8.75,7.91A1.63,1.63,0,0,1,39.54,9.6Z"/></g></g></svg>