<svg xmlns="http://www.w3.org/2000/svg" viewBox="0 0 54.23 52.51"><defs><style>.cls-1{fill:#7994ff;}.cls-2{fill:#093284;}</style></defs><title>material</title><g id="图层_2" data-name="图层 2"><g id="图层_1-2" data-name="图层 1"><path class="cls-1" d="M36.8,30.35H17.38a4.4,4.4,0,0,1-1.69-.26A1.77,1.77,0,0,1,14.5,28.5a1.62,1.62,0,0,1,.64-1.37,3.61,3.61,0,0,1,2.25-.58H36.8a4.68,4.68,0,0,1,1.73.26,1.74,1.74,0,0,1,1.22,1.63,1.65,1.65,0,0,1-.65,1.35A3.76,3.76,0,0,1,36.8,30.35Z"/><path class="cls-1" d="M36.73,37.23H17.52a3.84,3.84,0,0,1-2.39-.56,1.6,1.6,0,0,1-.63-1.35,1.82,1.82,0,0,1,1.33-1.66,5.11,5.11,0,0,1,1.73-.22H36.69a3.91,3.91,0,0,1,2.37.58,1.65,1.65,0,0,1,.66,1.35A1.76,1.76,0,0,1,38.4,37,5.08,5.08,0,0,1,36.73,37.23Z"/><path class="cls-1" d="M36.81,44.09H17.43a4.6,4.6,0,0,1-1.72-.26,1.76,1.76,0,0,1-1.2-1.63,1.62,1.62,0,0,1,.64-1.33,3.67,3.67,0,0,1,2.27-.55H36.87a3.66,3.66,0,0,1,2.21.55,1.6,1.6,0,0,1,.64,1.32,1.75,1.75,0,0,1-1.19,1.63A4.44,4.44,0,0,1,36.81,44.09Z"/><path class="cls-2" d="M53.08,19.08l-.53-.41a8.57,8.57,0,0,0-.8-.66l0,0L45.9,13.55,38.82,8.16,31.46,2.52,29.43,1,29.21.79l-.27-.2A2.91,2.91,0,0,0,27.47,0h-.71a2.91,2.91,0,0,0-1.47.58l-.34.26L24.8,1l-.42.33-13,9.93L8.86,13.17,5.42,15.8,2,18.41l-.26.22-.59.45A3,3,0,0,0,.6,23.21l.16.21a3,3,0,0,0,3.42.93V28c0,5.68,0,11.57,0,17.35a7.17,7.17,0,0,0,2,5.23,7.3,7.3,0,0,0,5.26,1.95H42.07c2.62,0,4.55-.66,5.89-2s2-3.3,2-5.94V24.32a3,3,0,0,0,3.51-.9l.16-.21A3,3,0,0,0,53.08,19.08ZM45,31.38c0,4.54,0,9.23,0,13.84,0,1.66-.68,2.31-2.42,2.32h-31c-1.81,0-2.48-.65-2.49-2.41,0-4.3,0-8.68,0-12.91,0-3.75,0-7.62,0-11.45L27.12,6.94,45,20.65C45,24.24,45,27.86,45,31.38Z"/></g></g></svg>