<svg xmlns="http://www.w3.org/2000/svg" viewBox="0 0 53.65 53.17"><defs><style>.cls-1{fill:#093284;}.cls-2{fill:#7994ff;}</style></defs><title>purchase</title><g id="图层_2" data-name="图层 2"><g id="图层_1-2" data-name="图层 1"><path class="cls-1" d="M47.86,20.59H6.21C2.43,20.59,0,24.28,0,26.89c0,3.61,2.27,5.88,4.62,6.3L7.22,47a7.6,7.6,0,0,0,7.14,6.21H39A7.51,7.51,0,0,0,46.18,47l2.77-13.6c3.19-1.18,4.7-3.19,4.7-6.3a6.34,6.34,0,0,0-6-6.55h.17Zm0,8-2.94.17-3.27,16a4.65,4.65,0,0,1-4.2,3.53H16.12a4.65,4.65,0,0,1-4.2-3.53l-3-16-3-.34a1.53,1.53,0,0,1-1.26-1.51,1.41,1.41,0,0,1,1.51-1.51l41.73-.17a1.55,1.55,0,0,1,1.68,1.51A1.57,1.57,0,0,1,47.86,28.57ZM45.67,16.9a2.38,2.38,0,0,1-3.36,0L29.47,4.05A2.37,2.37,0,0,1,32.83.69L45.67,13.54A2.38,2.38,0,0,1,45.67,16.9ZM8,16.9a2.38,2.38,0,0,0,3.36,0L24.18,4.05A2.37,2.37,0,1,0,20.82.69L8,13.62A2.28,2.28,0,0,0,8,16.9Z"/><path class="cls-2" d="M38,42.55a1.89,1.89,0,1,1-3.72-.66l2-11.17a1.89,1.89,0,1,1,3.73.62v0Z"/><path class="cls-2" d="M18.21,44a1.86,1.86,0,0,1-2.16-1.52h0L14.11,31.41a1.86,1.86,0,0,1,3.67-.65l1.94,11.06A1.87,1.87,0,0,1,18.21,44Z"/><path class="cls-2" d="M27,44.19a1.89,1.89,0,0,1-1.89-1.89h0V31a1.89,1.89,0,0,1,3.78,0V42.3A1.89,1.89,0,0,1,27,44.19Z"/></g></g></svg>