<?xml version="1.0" standalone="no"?><!DOCTYPE svg PUBLIC "-//W3C//DTD SVG 1.1//EN" "http://www.w3.org/Graphics/SVG/1.1/DTD/svg11.dtd"><svg t="1563947772840" class="icon" viewBox="0 0 1024 1024" version="1.1" xmlns="http://www.w3.org/2000/svg" p-id="4971" xmlns:xlink="http://www.w3.org/1999/xlink" width="128" height="128"><defs><style type="text/css"></style></defs><path d="M968.533333 840.533333c-4.266667-4.266667-17.066667-8.533333-25.6-8.533333-51.2 4.266667-81.066667 17.066667-110.933333 29.866667-25.6 12.8-51.2 25.6-98.133333 25.6-46.933333 0-72.533333-12.8-98.133334-25.6-29.866667-12.8-64-29.866667-128-29.866667s-98.133333 17.066667-128 29.866667c-25.6 12.8-51.2 25.6-98.133333 25.6-46.933333 0-72.533333-12.8-98.133333-25.6-25.6-12.8-55.466667-29.866667-110.933334-29.866667-8.533333 0-17.066667 4.266667-25.6 8.533333 0 4.266667-4.266667 12.8-4.266666 21.333334 0 17.066667 12.8 29.866667 29.866666 34.133333 38.4 0 59.733333 12.8 85.333334 25.6 29.866667 12.8 64 29.866667 128 29.866667s98.133333-17.066667 128-29.866667c25.6-12.8 51.2-25.6 98.133333-25.6 46.933333 0 72.533333 12.8 98.133333 25.6 29.866667 12.8 64 29.866667 128 29.866667s98.133333-17.066667 128-29.866667c25.6-12.8 46.933333-21.333333 85.333334-25.6 17.066667 0 29.866667-17.066667 29.866666-34.133333 0-8.533333-4.266667-17.066667-12.8-21.333334z m0 0" fill="#AE5C30" fill-opacity="0.1" p-id="4972"></path><path d="M234.666667 844.8c12.8 4.266667 29.866667 8.533333 51.2 8.533333 46.933333 0 64-8.533333 93.866666-21.333333 25.6-12.8 55.466667-25.6 102.4-29.866667V401.066667c0-17.066667 12.8-34.133333 34.133334-34.133334 17.066667 0 34.133333 12.8 34.133333 34.133334V797.866667c46.933333 4.266667 76.8 17.066667 102.4 29.866666 25.6 12.8 46.933333 21.333333 93.866667 21.333334 21.333333 0 38.4-4.266667 51.2-4.266667l110.933333-320c8.533333-21.333333 0-46.933333-21.333333-55.466667l-59.733334-34.133333V247.466667c0-21.333333-8.533333-42.666667-21.333333-55.466667l-8.533333-8.533333c-12.8-8.533333-29.866667-17.066667-46.933334-17.066667h-51.2V102.4c0-17.066667-12.8-29.866667-29.866666-29.866667H366.933333c-17.066667 0-29.866667 12.8-29.866666 29.866667v64H281.6c-42.666667 0-81.066667 34.133333-81.066667 81.066667v196.266666l-55.466666 29.866667c-21.333333 12.8-29.866667 34.133333-21.333334 55.466667l110.933334 315.733333z m298.666666-558.933333c-12.8-8.533333-29.866667-8.533333-42.666666 0L260.266667 409.6V247.466667c0-8.533333 8.533333-17.066667 17.066666-17.066667h460.8c8.533333 0 17.066667 8.533333 17.066667 17.066667v157.866666l-221.866667-119.466666z m0 0" fill="#AE5C30" fill-opacity="0.1" p-id="4973"></path></svg>